<svg width="29" height="24" viewBox="0 0 29 24" fill="none" xmlns="http://www.w3.org/2000/svg">
<path d="M14.4292 4.35295L14.4292 2" stroke="black" stroke-width="3" stroke-linecap="round"/>
<path d="M11.5708 17.2941L10.8565 13.7647" stroke="black" stroke-width="3" stroke-linecap="round"/>
<path d="M17.2842 17.2941L17.9985 13.7647" stroke="black" stroke-width="3" stroke-linecap="round"/>
<path d="M0.143066 9.05882H28.7145H27.642C26.1017 9.05882 25.3316 9.05882 24.7829 9.49959C24.2342 9.94037 24.0681 10.6924 23.7361 12.1965L22.2644 18.8624C21.9323 20.3664 21.7663 21.1185 21.2176 21.5592C20.6689 22 19.8987 22 18.3584 22H10.4991C8.95885 22 8.18871 22 7.64001 21.5592C7.0913 21.1185 6.92527 20.3664 6.5932 18.8624L5.12151 12.1965C4.78945 10.6924 4.62341 9.94037 4.07471 9.49959C3.526 9.05882 2.75586 9.05882 1.21557 9.05882H0.143066Z" stroke="black" stroke-width="3" stroke-linecap="round"/>
</svg>
