<svg width="30" height="30" viewBox="0 0 30 30" fill="none" xmlns="http://www.w3.org/2000/svg">
<path fill-rule="evenodd" clip-rule="evenodd" d="M30 15C30 23.2843 23.2843 30 15 30C6.71573 30 0 23.2843 0 15C0 6.71573 6.71573 0 15 0C23.2843 0 30 6.71573 30 15ZM6.91879 21.6667L7.6259 20.9595L13.5858 14.9997L7.62655 9.04043L6.91944 8.33332L8.33366 6.91911L9.04076 7.62622L15 13.5855L20.9592 7.62622L21.6663 6.91911L23.0806 8.33332L22.3734 9.04043L16.4142 14.9997L22.3741 20.9595L23.0812 21.6667L21.667 23.0809L20.9599 22.3738L15 16.4139L9.04011 22.3738L8.33301 23.0809L6.91879 21.6667Z" fill="#D2C098"/>
</svg>
