<svg width="23" height="23" viewBox="0 0 23 23" fill="none" xmlns="http://www.w3.org/2000/svg">
<path d="M2.67962 2.63617L4.60868 0.707107C4.99921 0.316582 5.63237 0.316583 6.0229 0.707108L9.66131 4.34552C10.0518 4.73605 10.0518 5.36921 9.66131 5.75974L7.21113 8.20992C6.8336 8.58745 6.74 9.16422 6.97878 9.64177C8.3591 12.4024 10.5976 14.6409 13.3582 16.0212C13.8358 16.26 14.4125 16.1664 14.7901 15.7889L17.2403 13.3387C17.6308 12.9482 18.264 12.9482 18.6545 13.3387L22.2929 16.9771C22.6834 17.3676 22.6834 18.0008 22.2929 18.3913L20.3638 20.3204C18.2525 22.4317 14.9099 22.6693 12.5212 20.8777L9.20752 18.3925C7.46399 17.0848 5.91517 15.536 4.60752 13.7925L2.12226 10.4788C0.330722 8.09009 0.568272 4.74752 2.67962 2.63617Z" fill="#222222"/>
</svg>
