<svg width="183" height="54" viewBox="0 0 183 54" fill="none" xmlns="http://www.w3.org/2000/svg">
<path fill-rule="evenodd" clip-rule="evenodd" d="M167.501 13.2739V13.7303C166.192 14.0699 165.266 14.7407 164.722 15.7423C164.178 16.7786 163.907 18.3148 163.907 20.3527V31.4326C163.907 33.0959 163.992 34.5813 164.161 35.8892C164.314 37.2642 164.493 38.0538 164.697 38.2579C164.884 38.4621 165.376 38.5634 166.175 38.5634H171.528C173.414 38.5634 174.977 38.2667 176.217 37.6729C177.458 37.078 178.545 35.9059 179.48 34.1572H179.99C179.87 34.9722 179.489 36.263 178.843 38.0288C178.418 39.15 178.146 40.0504 178.027 40.7291C176.65 40.525 175.172 40.4229 173.592 40.4229H161.791V13.5774C162.946 13.5436 164.238 13.4757 165.665 13.3736C166.802 13.3156 167.413 13.2823 167.501 13.2739ZM167.501 13.2739V13.2719C167.515 13.2719 167.515 13.2723 167.501 13.2739ZM2.15535 26.5923C1.85886 26.5946 1.56157 26.5315 1.28256 26.4028C0.761904 26.1621 0.356508 25.7379 0.163746 25.2176C0.0675639 24.9285 0 24.6199 0 24.3308C0 23.9745 0.0870389 23.6083 0.240851 23.2806C0.530589 22.6642 1.02223 22.2011 1.66808 21.9604C2.43953 21.6614 3.269 21.6912 4.02136 22.0276C4.13106 22.0784 4.23718 22.1348 4.33932 22.1968C4.2805 21.9477 4.2801 21.6693 4.34409 21.3889C4.32938 21.3282 4.31548 21.2674 4.30276 21.2066C3.49634 21.4711 2.67799 21.2582 2.40097 20.6299C2.12117 19.9849 2.51743 19.2041 3.27894 18.8093C2.44907 18.4622 2.02499 17.6913 2.27578 17.0165C2.51743 16.381 3.36518 16.1204 4.16524 16.3711C3.8286 15.562 4.04084 14.6747 4.70537 14.3856C5.35997 14.0969 6.13975 14.4909 6.50739 15.2689L6.51256 15.2653C6.64451 14.9444 6.84721 14.6791 7.08488 14.4901C7.04633 14.4436 7.02447 14.3848 7.0201 14.3229C6.05311 14.3372 5.17277 13.6596 4.98597 12.6806C4.96649 12.565 4.94662 12.4585 4.94662 12.343C4.94662 11.8652 5.15091 11.416 5.48914 11.101C5.5265 10.9771 5.57936 10.8567 5.6509 10.7436C5.89254 10.3575 6.25899 10.0783 6.6926 9.97265C7.66555 9.70773 8.6544 10.2137 9.06894 11.0958C9.11862 11.078 9.17029 11.072 9.21917 11.0819C9.16393 10.2669 9.14763 9.6569 9.14247 9.46149L9.69134 9.14375L9.74181 9.14574C9.5264 8.93524 9.35788 8.67549 9.23825 8.38237C9.14247 8.13136 9.10272 7.88075 9.10272 7.64006C9.10272 7.34218 9.17108 7.05304 9.29628 6.7639C9.56575 6.1471 10.0773 5.68439 10.7044 5.44331C11.3403 5.1927 12.0442 5.23122 12.6615 5.52036C13.5501 5.92587 14.1578 6.70552 14.3764 7.59002C14.51 7.36641 14.7079 7.16425 14.9531 7.00816C14.9853 6.95534 15.0183 6.90331 15.0521 6.85128C14.2922 6.4696 13.8689 5.73444 14.1272 5.09618C14.3884 4.44085 15.2174 4.16164 16.0274 4.43092C15.6896 3.60322 15.9313 2.74454 16.5874 2.44666C17.223 2.17618 17.9944 2.5809 18.3903 3.33275C18.7182 2.52371 19.4991 2.05108 20.1649 2.31122C20.8393 2.57177 21.11 3.39113 20.8107 4.2101C21.1386 4.06553 21.4764 4.01985 21.7837 4.05838C21.7888 4.00754 21.8095 3.95908 21.8401 3.91818C21.4371 3.5218 21.2252 2.97768 21.2252 2.4268C21.2252 2.03201 21.331 1.64636 21.5718 1.30003C21.9172 0.792045 22.4784 0.524749 23.0432 0.543416C23.1608 0.482252 23.288 0.434593 23.4235 0.402819C23.8575 0.28764 24.311 0.354364 24.6961 0.586311C25.5566 1.10581 25.9056 2.15077 25.5769 3.05751C25.6274 3.07935 25.6711 3.11351 25.7025 3.15799C26.237 2.54675 26.6544 2.10628 26.7895 1.9637L27.4067 2.12733L27.4457 2.16904L27.4453 2.12773C27.4453 1.82985 27.5029 1.54071 27.6186 1.26031C27.8602 0.750342 28.2748 0.36469 28.8141 0.162133C29.4313 -0.0785525 30.1265 -0.0499561 30.7437 0.239184C31.3609 0.519189 31.8232 1.01962 32.0553 1.65629C32.3534 2.4268 32.3243 3.26562 31.9869 4.01667C31.9352 4.1259 31.878 4.23115 31.816 4.33242C32.0676 4.27126 32.3478 4.26927 32.6292 4.33203C32.6888 4.31733 32.7484 4.30383 32.8084 4.29112C32.5441 3.4932 32.7564 2.67503 33.405 2.38827C34.0405 2.12733 34.8215 2.52331 35.2078 3.28389C35.5643 2.43633 36.3362 2.01215 37.0007 2.26277C37.6569 2.51338 37.9077 3.36095 37.6664 4.16124C38.4677 3.82365 39.3444 4.03614 39.6437 4.701C39.9231 5.3464 39.5376 6.12724 38.7566 6.49303C39.0877 6.62648 39.3576 6.8346 39.5471 7.07926C39.5897 7.04391 39.6401 7.02286 39.6922 7.01571L39.6918 6.98473C39.6918 6.58001 39.817 6.19436 40.0396 5.85796C40.3575 5.39525 40.8106 5.07752 41.3595 4.97068C41.9565 4.85192 42.5411 5.06798 42.9266 5.48303C43.0558 5.52433 43.181 5.58153 43.2986 5.6554C43.6846 5.88655 43.954 6.25275 44.0705 6.68685C44.2048 7.22581 44.1178 7.76517 43.8384 8.2382C43.6226 8.60241 43.3149 8.88678 42.9322 9.06392C42.9501 9.11158 42.956 9.16202 42.9501 9.21048C43.7609 9.15567 44.367 9.13898 44.5621 9.13382L44.8988 9.68351L44.8976 9.71488C45.1078 9.49763 45.367 9.32804 45.6615 9.2208C46.1817 9.02817 46.7604 9.04724 47.262 9.27799C47.8792 9.56713 48.3613 10.0688 48.5934 10.705C48.8442 11.3405 48.7957 12.0252 48.5159 12.6512C48.1884 13.403 47.5712 13.9714 46.799 14.2605C46.6865 14.3026 46.572 14.3383 46.4564 14.3669C46.6738 14.4984 46.8689 14.6898 47.0195 14.9258C47.076 14.9599 47.132 14.9953 47.1873 15.031C47.5708 14.278 48.3041 13.8578 48.9495 14.1064C49.5863 14.3673 49.8561 15.2145 49.5954 16.0053C50.4249 15.6677 51.3028 15.9183 51.5822 16.5836C51.8712 17.2 51.4566 17.9709 50.7142 18.3756C51.5047 18.7033 51.9968 19.4837 51.7273 20.1386C51.4785 20.8182 50.6502 21.0704 49.8366 20.8007L49.8323 20.8301C49.9614 21.1459 50.0044 21.4695 49.9718 21.765C50.0314 21.769 50.0862 21.7944 50.1308 21.8357C50.4173 21.5379 50.7897 21.3361 51.1963 21.2467C51.7277 21.1411 52.2865 21.2467 52.74 21.5557C53.24 21.8866 53.5051 22.4486 53.49 23.0161C53.7606 23.5213 53.7678 24.1544 53.4439 24.6878C53.1732 25.1497 52.7197 25.4873 52.1895 25.6224C51.7901 25.7264 51.3616 25.705 50.9702 25.5584C50.9503 25.5997 50.9213 25.6363 50.8851 25.6645C51.5055 26.2074 51.9519 26.6328 52.0937 26.769L51.9296 27.3858L51.9054 27.4084C52.1995 27.4084 52.4936 27.4716 52.7678 27.5979C53.2793 27.8386 53.6648 28.2433 53.8683 28.783C54.1179 29.4098 54.0893 30.0933 53.8199 30.7101C53.5206 31.3369 53.019 31.7996 52.3731 32.0402C51.4582 32.3814 50.4865 32.2599 49.7083 31.7968C49.7703 32.0474 49.7711 32.3282 49.7059 32.6086C49.7202 32.6674 49.7337 32.7266 49.7464 32.7857C50.5453 32.5296 51.372 32.742 51.6494 33.3795C51.9105 34.0162 51.5151 34.8065 50.7528 35.2009C51.5922 35.529 52.0258 36.3094 51.7659 36.9842C51.5151 37.6197 50.686 37.8802 49.876 37.6296C50.2039 38.4387 49.9912 39.316 49.345 39.6052C48.6817 39.9038 47.9019 39.5102 47.5338 38.7318L47.5287 38.7357C47.3999 39.0575 47.1968 39.3236 46.9571 39.5126C46.9929 39.5547 47.0132 39.6115 47.0187 39.6735C47.9837 39.6695 48.8522 40.3407 49.0652 41.3201C49.1848 41.9099 48.969 42.5041 48.5509 42.8945C48.5123 43.0192 48.4591 43.1404 48.3907 43.2575C48.1586 43.6432 47.7922 43.9228 47.349 44.028C46.8188 44.173 46.2584 44.096 45.7966 43.8072C45.4238 43.5943 45.1388 43.283 44.9687 42.9096C44.921 42.9251 44.8701 42.9271 44.8205 42.9144C44.8765 43.7302 44.8936 44.3414 44.8988 44.5392L44.3495 44.8474L44.2994 44.8458C44.5196 45.0595 44.6941 45.3236 44.8034 45.6187C45.0061 46.1485 44.9862 46.7169 44.7354 47.2372C44.4655 47.854 43.9739 48.3167 43.3368 48.5574C42.7108 48.7893 42.0069 48.7695 41.3897 48.4803C40.6369 48.1427 40.0583 47.5359 39.7693 46.7554C39.7288 46.643 39.6934 46.529 39.6636 46.4135C39.532 46.6295 39.3397 46.8261 39.1024 46.9818C39.0674 47.0394 39.0317 47.0962 38.9947 47.1526C39.7423 47.5359 40.1723 48.2774 39.9144 48.9045C39.6537 49.5598 38.8242 49.8291 38.0146 49.5598C38.3612 50.3887 38.1104 51.2561 37.4645 51.5441C36.8282 51.8245 36.0564 51.4198 35.6613 50.6679C35.3235 51.477 34.5524 51.9397 33.8772 51.6895C33.2126 51.4202 32.942 50.5925 33.2305 49.7926L33.2273 49.7922C32.9026 49.9348 32.5676 49.98 32.2619 49.9427C32.2544 49.9983 32.2298 50.0511 32.1936 50.0944C32.8808 50.7696 33.0056 51.8603 32.4694 52.7106C32.1312 53.2106 31.562 53.4755 30.9961 53.4553C30.8796 53.5176 30.7556 53.5657 30.6272 53.5979C30.1837 53.7035 29.7115 53.6364 29.3256 53.4044C28.8725 53.1153 28.5248 52.6919 28.4091 52.1426C28.3519 51.9786 28.3225 51.8146 28.3225 51.641C28.3225 51.3948 28.3682 51.1565 28.454 50.9297C28.4087 50.9074 28.3697 50.8769 28.3427 50.8375C27.8062 51.4516 27.3873 51.8936 27.2517 52.037L26.6345 51.873L26.6087 51.8452C26.6138 52.1407 26.5506 52.4381 26.4231 52.7209C26.1909 53.2504 25.7764 53.6364 25.2275 53.829C24.6103 54.0792 23.9247 54.0506 23.2979 53.7706C22.6906 53.4914 22.2276 52.9811 21.9776 52.3349C21.852 51.9885 21.7753 51.6223 21.7753 51.2562C21.7753 50.822 21.881 50.3887 22.0547 49.9832C22.1048 49.8744 22.1608 49.7691 22.222 49.6679C21.9681 49.7298 21.6855 49.7314 21.4021 49.6687C21.3429 49.6834 21.2833 49.6965 21.2237 49.7092C21.4971 50.5063 21.2849 51.3249 20.6466 51.593C20.0007 51.8821 19.2193 51.4869 18.8235 50.7251C18.4769 51.554 17.7051 51.9885 17.0401 51.7379C16.3935 51.4774 16.1336 50.6485 16.3843 49.8394C15.5839 50.1866 14.6968 49.9646 14.4074 49.3092C14.1094 48.6463 14.5108 47.8683 15.287 47.5009L15.2806 47.4926C14.9555 47.3643 14.6892 47.1633 14.5 46.927C14.4563 46.9619 14.4003 46.9826 14.3411 46.9882C14.3486 47.935 13.671 48.8175 12.7008 49.0296C12.0891 49.1492 11.4942 48.9355 11.107 48.5145C10.9878 48.4775 10.8722 48.4279 10.7617 48.3648C10.367 48.1241 10.0872 47.7479 9.98068 47.3047C9.93219 47.1411 9.91351 46.977 9.91351 46.8134C9.91351 46.0242 10.3789 45.2851 11.0999 44.936C11.0832 44.8879 11.0796 44.8375 11.0904 44.7902C10.28 44.845 9.67385 44.8613 9.4791 44.8665L9.14247 44.308L9.14366 44.2751C8.9354 44.4903 8.68381 44.6631 8.39964 44.77C7.86865 44.9725 7.29076 44.9435 6.76931 44.7215C6.16241 44.4324 5.68905 43.9411 5.4482 43.3056C5.35202 43.0164 5.29399 42.7273 5.29399 42.4183C5.29399 42.0438 5.37109 41.6863 5.5253 41.3487C5.86313 40.5981 6.47003 40.0293 7.25141 39.7303C7.3623 39.6901 7.47518 39.6564 7.58885 39.629C7.37105 39.4959 7.17352 39.3013 7.01811 39.061C6.96446 39.0289 6.9116 38.9955 6.85953 38.9617C6.48593 39.7279 5.74867 40.1441 5.10163 39.8943C4.44624 39.6337 4.18551 38.7957 4.44624 37.976C3.61676 38.333 2.74834 38.0824 2.46894 37.4275C2.18914 36.7908 2.58459 36.0203 3.32702 35.6342C2.52657 35.2978 2.06394 34.5174 2.31473 33.8521C2.57386 33.1901 3.40572 32.9104 4.21174 33.2115L4.21413 33.1936C4.07701 32.8703 4.0313 32.5387 4.06588 32.2372C4.01222 32.2285 3.96095 32.2047 3.91803 32.1697C3.24157 32.8608 2.13945 33.0085 1.30203 32.445C0.809994 32.1272 0.549667 31.5676 0.549667 31.0279C0.549667 31.0092 0.550064 30.9909 0.550462 30.9723C0.423676 30.7304 0.356508 30.4587 0.356508 30.1803C0.356508 29.8812 0.433614 29.5921 0.597759 29.3228C1.10013 28.4637 2.15853 28.1075 3.07067 28.4399C3.09134 28.3898 3.12433 28.3477 3.16765 28.3192C2.55638 27.7842 2.1176 27.3667 1.9773 27.2317L2.13111 26.6149L2.15535 26.5923ZM41.4128 28.8021C41.4585 28.9205 41.5089 29.0349 41.5638 29.1453C42.0713 29.7668 42.8014 30.1259 43.5494 30.1902C44.5812 30.2768 46.8288 28.561 48.4869 26.9997C47.378 25.96 44.7267 23.7235 43.559 23.8204C42.807 23.8796 42.0701 24.2394 41.5594 24.8677C41.5077 24.9726 41.4601 25.081 41.4167 25.193C41.7176 24.9654 42.0793 24.8284 42.46 24.7931C43.5005 24.716 45.8737 26.9997 45.8737 26.9997C45.8737 26.9997 43.5005 29.2938 42.46 29.2072C42.0777 29.1715 41.7148 29.0321 41.4128 28.8021ZM40.2164 25.2681C40.1397 24.6791 40.0241 24.1024 39.8723 23.54C39.7236 23.9435 39.4744 24.3018 39.1465 24.5814C39.5587 24.7172 39.9263 24.9563 40.2164 25.2681ZM9.94809 38.0884C10.2188 37.1379 10.5796 36.3484 11.0609 35.9428C11.173 35.8491 11.2899 35.7605 11.4107 35.6775C10.8197 35.5977 10.2788 35.3002 9.90358 34.8447C9.5272 34.401 9.33483 33.8708 9.33483 33.3025C9.33483 33.2254 9.33483 33.1487 9.34437 33.0816C9.38531 32.6304 9.57211 32.2154 9.87615 31.8881C9.71877 31.9179 9.56058 31.9398 9.402 31.9533C8.73031 32.0049 7.85076 31.6554 6.93147 31.1248C6.62424 31.7436 6.47043 32.4402 6.47043 33.1869C6.47043 35.4301 7.88415 37.4013 9.94809 38.0884ZM42.084 5.44569C41.8829 5.37818 41.662 5.3607 41.4378 5.40479C41.0034 5.49177 40.6369 5.73245 40.4148 6.09864C40.1648 6.46483 40.0781 6.88901 40.1648 7.30366C40.2737 7.83547 40.5781 8.2811 40.9879 8.57977C41.4295 8.8137 41.9561 8.89393 42.4787 8.76803C42.8936 8.65245 43.241 8.39191 43.4723 8.01618C43.6945 7.64999 43.7517 7.20675 43.646 6.80243C43.5884 6.57922 43.4807 6.3854 43.3304 6.22971C43.3364 6.25314 43.3416 6.27697 43.3463 6.3008C43.4334 6.65706 43.3463 7.03319 43.1444 7.34179C42.9517 7.64999 42.6142 7.86208 42.2573 7.93913C42.1417 7.96773 42.0252 7.88075 41.9867 7.7751C41.9684 7.64999 42.0451 7.53442 42.1703 7.51456C42.4211 7.45736 42.6425 7.32233 42.778 7.09157C42.9318 6.87908 42.9616 6.6384 42.9318 6.38778C42.8873 6.19317 42.8014 6.01802 42.685 5.87027C42.501 5.83135 42.3118 5.83611 42.1321 5.88655C41.8714 5.94494 41.6592 6.09864 41.5439 6.31073C41.3992 6.53196 41.3698 6.7925 41.4183 7.05304C41.4664 7.14876 41.3897 7.27387 41.2645 7.30366C41.1576 7.34218 41.0324 7.26394 41.0034 7.14876C40.9076 6.78257 40.9748 6.41678 41.1576 6.09864C41.3599 5.77137 41.6592 5.53943 42.0165 5.46238C42.0387 5.45642 42.0614 5.45086 42.084 5.44569ZM13.2362 29.1747C12.8542 30.0933 12.2203 30.7963 11.4651 31.2677L11.4854 31.2697C11.929 31.3083 12.324 31.5005 12.5848 31.8282C12.8928 32.1558 13.0092 32.6185 12.9699 33.0232C12.9699 33.3795 12.7871 33.6984 12.5263 33.9391C12.2469 34.1699 11.8904 34.2854 11.524 34.2569C11.2148 34.237 10.9457 34.0829 10.743 33.8521C10.5594 33.6202 10.4536 33.3223 10.4922 33.0419C10.5403 32.522 11.0025 32.1372 11.524 32.1757C11.6297 32.1844 11.6969 32.3095 11.7167 32.4164C11.7167 32.5319 11.6011 32.6185 11.4854 32.6185C11.2052 32.5899 10.954 32.8012 10.9353 33.0816C10.9258 33.2739 10.9739 33.4375 11.08 33.5729C11.2052 33.7167 11.3789 33.8037 11.5526 33.8323C11.8034 33.8521 12.0442 33.7656 12.237 33.6015C12.421 33.4474 12.5363 33.2353 12.5462 32.9946C12.5744 32.6757 12.4691 32.3484 12.2668 32.1173C12.0641 31.8667 11.7839 31.7225 11.456 31.703C11.0411 31.6645 10.6361 31.7896 10.3281 32.0593C10.0093 32.3195 9.81693 32.7055 9.77798 33.1102C9.77798 33.1869 9.76844 33.2353 9.76844 33.2925C9.76844 33.7656 9.93219 34.2084 10.2414 34.5647C10.5689 34.9702 11.0609 35.2208 11.6011 35.2593C11.7986 35.2792 11.9949 35.2744 12.1873 35.247C12.4488 35.1326 12.7223 35.0421 13.0037 34.9773C13.1579 34.8947 13.3049 34.7958 13.4428 34.681C13.9635 34.2469 14.291 33.6202 14.349 32.9367C14.351 32.9136 14.357 32.8914 14.3661 32.8711C13.8264 31.7158 13.4413 30.4746 13.2362 29.1747ZM39.2693 44.3347C39.0106 44.2838 38.7562 44.2282 38.5102 44.1675C37.7574 46.3944 35.6402 47.9219 33.221 47.9219C32.3883 47.9219 31.6193 47.7487 30.9404 47.4219C30.8379 47.5875 30.7306 47.7535 30.6197 47.9195C31.5871 48.7409 32.7929 49.1936 34.0405 49.1936C36.7805 49.1936 39.0503 47.0529 39.2693 44.3347ZM40.1509 19.1322C39.538 19.1473 38.9049 19.0377 38.2856 18.7783C38.6807 19.3173 39.038 19.8856 39.3536 20.4798C39.4915 19.9694 39.7614 19.5079 40.1509 19.1322ZM40.8142 24.8828C41.1922 23.9455 41.8313 23.2274 42.5928 22.7445L42.5467 22.7409C42.1222 22.7024 41.7172 22.5002 41.4374 22.1725C41.1572 21.8349 41.032 21.4203 41.0614 20.9774C41.1 20.6212 41.2538 20.2836 41.5244 20.0616C41.7943 19.8308 42.1608 19.7053 42.5169 19.7339C42.8161 19.7625 43.1059 19.9079 43.2982 20.1386C43.4723 20.3706 43.5876 20.6399 43.5399 20.9576C43.5304 21.2082 43.3948 21.4402 43.2112 21.6042C43.0089 21.7579 42.7776 21.8349 42.5272 21.825C42.4016 21.8163 42.3344 21.6908 42.3344 21.5843C42.3531 21.4588 42.4402 21.3822 42.5654 21.3822C42.7005 21.4016 42.836 21.3532 42.9417 21.2666C43.0284 21.1796 43.1059 21.0541 43.125 20.9191C43.1341 20.7268 43.0669 20.5628 42.9517 20.419C42.836 20.2836 42.6723 20.1871 42.4883 20.1772C42.2375 20.1585 41.9867 20.2351 41.7943 20.3992C41.6202 20.5533 41.5149 20.7654 41.5046 21.016C41.4465 21.3238 41.5717 21.6423 41.784 21.8834C41.9771 22.134 42.276 22.2778 42.5852 22.2976C42.9902 22.3461 43.3948 22.2111 43.7327 21.9505C44.0319 21.6713 44.2346 21.3051 44.2628 20.8805C44.3113 20.3606 44.1476 19.8495 43.8098 19.4348C43.462 19.0305 42.9799 18.7799 42.4402 18.7414C42.245 18.7215 42.0495 18.7263 41.8571 18.7541C41.5968 18.8669 41.3245 18.957 41.0439 19.0206C40.8869 19.104 40.7375 19.2037 40.5984 19.3197C40.0781 19.7538 39.7498 20.3793 39.6918 21.0541C39.6898 21.0791 39.6839 21.1026 39.6751 21.124C40.2228 22.2976 40.6119 23.5599 40.8142 24.8828ZM40.2021 18.4729C41.09 18.4379 41.9231 18.0999 42.5654 17.5562C43.6257 16.6503 44.1174 12.8926 44.2342 9.79908C42.1417 9.86581 37.5027 10.2618 36.4808 11.4755C35.922 12.1289 35.5774 12.9705 35.5472 13.8653C35.6832 13.4892 35.8863 13.1421 36.143 12.8442C37.2133 11.5625 42.1707 11.466 42.373 11.4561L42.5753 11.7845C42.5272 13.1524 42.3058 16.9593 41.1958 17.8938C40.9032 18.1409 40.5666 18.3383 40.2021 18.4729ZM35.2472 15.7423C34.862 14.8209 34.8068 13.8733 35.0019 13.0046L34.986 13.0181C34.649 13.2874 34.2345 13.4229 33.7997 13.3843C33.3665 13.3546 32.9706 13.1524 32.6813 12.8148C32.4499 12.5356 32.3061 12.2179 32.3629 11.8417C32.4018 11.4859 32.5751 11.1483 32.845 10.9171C33.0771 10.7237 33.3664 10.628 33.6657 10.6566C33.9642 10.6856 34.2436 10.8206 34.4169 11.0514C34.7746 11.4374 34.7162 12.0344 34.3215 12.3815C34.2345 12.4585 34.0795 12.4486 34.0123 12.3529C33.9451 12.2659 33.9539 12.1309 34.0318 12.0538C34.2436 11.8703 34.273 11.5431 34.0894 11.3318C33.9833 11.1868 33.81 11.1097 33.626 11.0899C33.4436 11.0811 33.2599 11.1284 33.1256 11.2539C32.9416 11.4088 32.8263 11.6296 32.8164 11.8803C32.7778 12.1023 32.8549 12.343 33.0191 12.5257C33.2313 12.7763 33.5107 12.9212 33.8299 12.9502C34.1574 12.9784 34.4654 12.893 34.6963 12.6893C35.0155 12.4101 35.2078 12.0443 35.2464 11.6296C35.2853 11.2249 35.1597 10.8107 34.8803 10.483C34.5524 10.0882 34.0703 9.83761 33.5588 9.78955C33.0191 9.75063 32.4785 9.91466 32.064 10.2622C31.9225 10.3821 31.7957 10.516 31.6852 10.6613C31.576 10.9449 31.4372 11.2198 31.2715 11.4799C31.2238 11.6412 31.192 11.8076 31.1773 11.9772C31.1101 12.671 31.3315 13.316 31.7747 13.8462C31.7878 13.8625 31.7973 13.8808 31.8041 13.8999C33.0429 14.353 34.2003 14.9766 35.2472 15.7423ZM44.0939 15.9012C43.8221 16.8568 43.4604 17.65 42.9799 18.0575C42.869 18.1512 42.7529 18.2402 42.6325 18.3232C43.2227 18.4038 43.7637 18.7013 44.1476 19.1556C44.5522 19.6569 44.7744 20.2641 44.6965 20.9191C44.6639 21.3742 44.4806 21.7881 44.181 22.109C44.3459 22.076 44.5117 22.0522 44.6778 22.0371C45.3431 21.9859 46.2155 22.3326 47.1284 22.86C47.4218 22.2389 47.5799 21.547 47.5799 20.8138C47.5799 18.567 46.163 16.5935 44.0939 15.9012ZM14.1944 45.8959C14.2063 45.8248 14.2258 45.7545 14.2524 45.6858C14.2703 45.6398 14.2922 45.5953 14.3176 45.5524C14.2167 45.1965 14.1479 44.8291 14.1133 44.4546C13.5601 44.5456 13.0029 44.6166 12.4747 44.6719C12.76 44.7485 13.0287 44.8744 13.2692 45.0424C13.64 45.2438 13.9607 45.5357 14.1944 45.8959ZM50.0449 29.0495C49.7003 29.3339 49.3347 29.6246 48.9591 29.907C48.9797 29.9333 48.996 29.9634 49.0076 29.9976C49.4797 31.2499 50.8978 31.9052 52.1506 31.4234C52.6239 31.2499 53.0091 30.9035 53.2114 30.4408C53.4236 29.9877 53.4435 29.4765 53.2595 29.0047C53.1255 28.6476 52.8549 28.3497 52.4983 28.1948C52.1506 28.0407 51.7658 28.0221 51.4081 28.1563C51.1287 28.2628 50.9165 28.4554 50.7909 28.7346C50.6753 28.9852 50.6657 29.2938 50.7528 29.5635C50.8398 29.7656 50.9745 29.9197 51.1673 30.0063C51.37 30.1032 51.5918 30.1132 51.804 30.0262C51.9383 29.9877 52.0639 29.8725 52.1224 29.7371C52.1895 29.602 52.1895 29.438 52.1319 29.3029C52.0937 29.1874 52.0254 29.1008 51.9197 29.0623C51.833 29.0237 51.7273 29.0138 51.6307 29.0535C51.4765 29.1202 51.2738 29.0337 51.2058 28.8597C51.1387 28.6961 51.2253 28.5134 51.3994 28.4454C51.6689 28.3398 51.9296 28.3497 52.1991 28.4554C52.4689 28.5904 52.6526 28.8025 52.7491 29.0718C52.8648 29.3709 52.8549 29.7085 52.7197 29.9976C52.5754 30.3054 52.3346 30.5366 52.0254 30.643C51.6494 30.778 51.2643 30.7681 50.8978 30.5945C50.5314 30.4408 50.2806 30.1616 50.1451 29.7942C50.0596 29.5536 50.0242 29.301 50.0449 29.0495ZM38.1239 44.0658C37.1684 43.7969 36.3731 43.4379 35.9602 42.9585C35.8688 42.8488 35.7825 42.7345 35.7014 42.6157C35.618 43.2031 35.329 43.7278 34.8704 44.115C34.3787 44.5293 33.7428 44.7215 33.0958 44.6647C32.6626 44.6242 32.2357 44.4439 31.9158 44.1512C31.944 44.3021 31.9647 44.4542 31.9778 44.6063C32.029 45.2775 31.6789 46.1565 31.1479 47.0751C31.7655 47.3822 32.4587 47.5359 33.221 47.5359C35.4554 47.5359 37.4264 46.1263 38.1239 44.0658ZM31.2381 7.08601C31.723 7.95542 32.0294 8.77359 31.9778 9.4031C31.9654 9.54609 31.9464 9.68867 31.9201 9.83086C32.3939 9.47221 32.9817 9.31136 33.5787 9.35624C34.2245 9.41343 34.8132 9.7125 35.2182 10.2038C35.5095 10.5525 35.6859 10.9687 35.6947 11.4136C35.7805 11.2881 35.8724 11.1669 35.9697 11.0514C36.4101 10.5366 37.2885 10.1601 38.3238 9.88447C38.0893 9.22835 37.7014 8.62862 37.1652 8.09284C35.5842 6.52123 33.1963 6.1332 31.2381 7.08601ZM20.3517 15.4989C19.8612 15.7844 19.3906 16.1002 18.9423 16.4441C19.3541 16.4326 19.7666 16.52 20.1418 16.7063C20.1374 16.6463 20.135 16.5859 20.135 16.5252C20.135 16.1629 20.2114 15.815 20.3517 15.4989ZM1.11682 31.5934C1.21261 31.7829 1.35887 31.9517 1.55243 32.0788C2.28572 32.5701 3.29841 32.3774 3.79005 31.6355C4.09012 31.1812 4.19068 30.6537 4.11397 30.1569C3.9693 29.6826 3.65571 29.2596 3.20143 28.9852C2.43038 28.5225 1.42683 28.7731 0.973743 29.5448C0.854907 29.7414 0.796085 29.9531 0.790918 30.162C0.803239 30.1422 0.815957 30.1227 0.829471 30.1032C1.03177 29.7942 1.34059 29.5829 1.70703 29.5059C2.08302 29.4193 2.4594 29.5059 2.76742 29.7085C2.864 29.7756 2.88387 29.9193 2.83538 30.0063C2.75868 30.1132 2.62315 30.1513 2.52657 30.0746C2.30479 29.9293 2.06394 29.8812 1.80321 29.9392C1.55243 29.9877 1.32111 30.1318 1.19592 30.3439C1.08582 30.5088 1.01985 30.6891 0.995206 30.8722C1.09775 31.0279 1.23646 31.1649 1.40815 31.2697C1.61999 31.3853 1.87078 31.4234 2.12117 31.3754C2.37196 31.3083 2.5842 31.1534 2.70979 30.9321C2.77696 30.8257 2.91249 30.7872 3.01781 30.8452C3.11439 30.9035 3.15295 31.0572 3.08578 31.1534C2.90216 31.4806 2.59413 31.7026 2.23683 31.7896C1.87078 31.8861 1.4944 31.8282 1.18598 31.6359C1.16253 31.622 1.13948 31.6081 1.11682 31.5934ZM18.1458 15.5855C18.1971 15.4711 18.2424 15.3567 18.2818 15.2419C18.3624 14.4372 18.0997 13.6616 17.6188 13.0952C16.9436 12.3048 14.1368 11.9287 11.8705 11.8517C11.919 13.3645 12.1984 16.8242 13.105 17.5852C13.6869 18.0737 14.4782 18.3402 15.2957 18.2481C15.3983 18.212 15.5008 18.171 15.6026 18.1258C15.2206 18.0777 14.8625 17.9192 14.5716 17.6714C13.7807 16.9879 13.7222 13.6918 13.7222 13.6918C13.7322 13.6921 17.0222 13.7525 17.6764 14.5492C17.9304 14.8467 18.0942 15.205 18.1458 15.5855ZM11.6885 23.733C11.0339 23.1206 10.1969 22.7647 9.34477 22.6924C7.95569 22.5868 4.94662 24.8999 2.67164 26.9997C4.21413 28.4367 7.77286 31.4234 9.35351 31.3083C10.2013 31.2356 11.0359 30.8821 11.6897 30.2708C11.3312 30.4388 10.9469 30.5413 10.5594 30.5751C8.88134 30.7101 5.32261 27.2802 5.16879 27.1348L5.25544 26.769C6.25899 25.8345 9.12259 23.3092 10.5594 23.4347C10.9465 23.4661 11.3308 23.5666 11.6885 23.733ZM12.1837 23.2858C12.6193 23.7012 12.9826 24.2156 13.2358 24.8244C13.3391 24.1687 13.4881 23.5277 13.6801 22.9053C13.2155 23.1674 12.698 23.2926 12.1837 23.2858ZM30.4651 14.1533C29.9063 14.0035 29.3336 13.8891 28.7489 13.8133C29.0565 14.1056 29.2914 14.4738 29.4218 14.8864C29.7032 14.5532 30.0649 14.3034 30.4651 14.1533ZM22.7173 4.57748C22.7594 4.63666 22.796 4.7006 22.8262 4.76852C22.8472 4.8126 22.8647 4.85907 22.8782 4.90713C23.201 5.08705 23.5086 5.29834 23.7971 5.53982C24.123 5.08506 24.4664 4.64103 24.8007 4.22837C24.5245 4.38843 24.2216 4.49407 23.9096 4.54253C23.5245 4.64778 23.1151 4.66247 22.7173 4.57748ZM23.4315 47.9275C23.2792 47.7007 23.1346 47.4739 22.9994 47.2495C20.9025 48.3107 18.3151 47.887 16.5958 46.1875C16.004 45.5949 15.5994 44.9384 15.351 44.2107C15.1578 44.256 14.9607 44.2985 14.7612 44.3378C14.8665 45.5989 15.3947 46.7697 16.2778 47.6614C18.238 49.6015 21.3556 49.6897 23.4315 47.9275ZM22.422 1.11177C22.2308 1.2059 22.0627 1.35047 21.9391 1.54071C21.4462 2.28263 21.6585 3.28429 22.3822 3.78552C22.8317 4.07784 23.3552 4.17912 23.8488 4.10564C24.3309 3.96186 24.7613 3.64691 25.0336 3.18857C25.497 2.40813 25.2462 1.42394 24.4748 0.962432C24.2892 0.847252 24.0777 0.786883 23.8579 0.784897C23.8806 0.798798 23.9028 0.8127 23.9247 0.827395C24.2339 1.02955 24.4362 1.33855 24.5133 1.70474C24.5717 2.08047 24.5133 2.44666 24.311 2.7644C24.2439 2.86091 24.0984 2.8899 24.0018 2.82159C23.906 2.74454 23.8862 2.61903 23.9446 2.52371C24.0888 2.30169 24.1568 2.03201 24.0889 1.79133C24.0404 1.54071 23.8965 1.32862 23.6842 1.19359C23.5173 1.08238 23.3329 1.01605 23.1461 0.991821C22.9867 1.09389 22.85 1.23171 22.7487 1.40528C22.6334 1.61776 22.5849 1.86838 22.6521 2.11899C22.7105 2.36961 22.8743 2.57177 23.0865 2.70601C23.1926 2.77393 23.2308 2.90817 23.1636 2.99515C23.1056 3.11033 22.97 3.15005 22.8743 3.08213C22.5364 2.8895 22.3055 2.59043 22.2276 2.21471C22.1418 1.85845 22.1891 1.49226 22.3826 1.17452C22.3953 1.15308 22.4084 1.13242 22.422 1.11177ZM25.2339 41.3384C25.1226 41.3809 25.0145 41.427 24.91 41.4774C24.2693 41.987 23.8985 42.7285 23.8377 43.4883C23.7514 44.5193 25.4684 46.7554 27.0109 48.4223C28.0621 47.3051 30.2902 44.6647 30.1932 43.4883C30.1269 42.7261 29.7533 41.9767 29.103 41.4647C29.0088 41.4202 28.9119 41.3793 28.8121 41.3412C29.047 41.647 29.1873 42.0148 29.2195 42.4C29.2966 43.4267 27.0308 45.7903 27.0109 45.8109C27.0109 45.7903 24.7264 43.4267 24.8213 42.4C24.8539 42.0136 24.9962 41.6446 25.2339 41.3384ZM28.7453 40.1775C29.3379 40.1008 29.9186 39.9845 30.4846 39.8319C30.0768 39.6822 29.708 39.4312 29.4222 39.0964C29.2918 39.5138 29.0565 39.8844 28.7453 40.1775ZM17.9376 24.7641C17.746 24.8892 17.5393 24.9885 17.3227 25.0592C17.4956 25.2057 17.6486 25.3745 17.777 25.5612C17.8191 25.2915 17.8728 25.0254 17.9376 24.7641ZM29.2394 17.9184C29.1169 17.7318 29.0188 17.5288 28.9492 17.3136C28.9063 17.3636 28.8614 17.4124 28.8141 17.4597C28.6984 17.5729 28.5756 17.6738 28.4465 17.7612C28.7147 17.8025 28.9794 17.8549 29.2394 17.9184ZM22.191 19.0019C21.9494 18.9539 21.7165 18.8717 21.4995 18.7585C21.519 19.0047 21.505 19.2533 21.4578 19.4948C21.6942 19.3193 21.9387 19.1548 22.191 19.0019ZM25.0908 17.2893C25.0209 17.5145 24.9207 17.7274 24.7935 17.9216C25.063 17.8553 25.3372 17.8009 25.6154 17.7584C25.4195 17.6265 25.243 17.4684 25.0908 17.2893ZM12.1674 9.30381C12.6181 9.3471 13.0895 9.40072 13.5625 9.46745C13.5637 9.42336 13.5744 9.37887 13.597 9.33638C14.1567 8.11269 13.6066 6.66699 12.392 6.10857C11.929 5.90522 11.4075 5.88655 10.9353 6.06012C10.4624 6.23368 10.0963 6.58041 9.8841 7.03319C9.72989 7.38945 9.71082 7.79496 9.85549 8.15122C9.99022 8.50748 10.2513 8.78669 10.6075 8.94159C10.8682 9.0671 11.1663 9.07583 11.4274 8.98012C11.7167 8.88321 11.929 8.67112 12.0442 8.4205C12.1416 8.21834 12.1499 7.99712 12.0732 7.80409C11.9961 7.59161 11.8423 7.4379 11.6396 7.34218C11.5045 7.26394 11.3403 7.26394 11.2052 7.32233C11.051 7.38071 10.9457 7.47603 10.8869 7.6214C10.83 7.72704 10.83 7.84222 10.8682 7.93913C10.9067 8.03604 10.9838 8.1127 11.08 8.15122C11.2346 8.2382 11.3304 8.43043 11.2346 8.59446C11.1766 8.74817 10.9739 8.81608 10.8102 8.74817C10.5494 8.63299 10.3567 8.43043 10.2513 8.16989C10.1643 7.90061 10.1643 7.61147 10.2895 7.34218C10.4151 7.07171 10.6559 6.83103 10.9739 6.71545C11.2831 6.59987 11.6198 6.60901 11.919 6.74404C12.6615 7.09157 12.9695 7.95899 12.6332 8.68105C12.5275 8.92451 12.3681 9.1366 12.1674 9.30381ZM18.4916 13.8482C18.4606 12.9602 18.1212 12.1249 17.5707 11.4755C16.6641 10.406 12.9027 9.90473 9.81693 9.79869C9.87536 11.8997 10.27 16.5347 11.4858 17.5562C12.1297 18.1011 12.9647 18.4375 13.853 18.4697C13.4854 18.3367 13.1459 18.1401 12.8538 17.8938C11.5812 16.8044 11.4759 11.8703 11.4655 11.6495L11.8034 11.4561C13.1634 11.5045 16.9817 11.7365 17.907 12.8446C18.1574 13.1381 18.3569 13.4789 18.4916 13.8482ZM33.2409 37.4557C33.2409 37.2051 33.2122 36.9743 33.0958 36.7523C32.7011 35.7891 31.6018 35.3264 30.6368 35.7208C29.7115 36.0969 29.2286 37.2249 29.615 38.1789C30.0199 39.1321 31.1101 39.5952 32.064 39.2191C32.7778 38.9113 33.2409 38.2079 33.2409 37.4557ZM18.4284 31.3369C18.4284 31.0763 18.3803 30.8456 18.2746 30.6049C18.1009 30.1517 17.7531 29.7946 17.281 29.602C16.818 29.3999 16.2977 29.3999 15.8243 29.5921C15.1205 29.8812 14.6674 30.5751 14.6674 31.3468C14.6674 31.5875 14.7059 31.8182 14.793 32.0402C15.2174 33.0133 16.2977 33.4665 17.2428 33.0618C17.9753 32.7726 18.4284 32.0978 18.4284 31.3369ZM17.5608 26.991C17.5608 25.9401 16.7218 25.1112 15.6809 25.1112C14.6487 25.1112 13.7993 25.95 13.7807 26.9811C13.7993 28.0411 14.6388 28.8696 15.6809 28.8696C16.7027 28.8696 17.5608 28.0312 17.5608 26.991ZM23.3035 41.8329C23.7204 41.3948 24.2375 41.0294 24.8496 40.7752C24.187 40.6712 23.54 40.5206 22.912 40.3268C23.1787 40.7943 23.3079 41.315 23.3035 41.8329ZM25.0006 50.0102C24.7113 49.6595 24.4148 49.2862 24.1266 48.9025C24.0976 48.9323 24.0622 48.9565 24.0217 48.9716C23.4048 49.2123 22.9128 49.6655 22.6521 50.2636C22.3822 50.8419 22.3528 51.4869 22.5948 52.1136C22.7677 52.5954 23.125 52.9612 23.5781 53.1733C24.0404 53.3854 24.5419 53.4045 25.0149 53.2218C25.3913 53.0867 25.6707 52.8174 25.8348 52.46C25.989 52.1136 25.9986 51.7276 25.8535 51.3618C25.7665 51.0925 25.5554 50.8804 25.2943 50.7549C25.0336 50.6393 24.7355 50.6298 24.4553 50.7351C24.2526 50.803 24.0988 50.9476 24.0022 51.1398C23.9152 51.3332 23.9152 51.554 23.9831 51.7566C24.0404 51.9111 24.1369 52.0171 24.2911 52.0938C24.4362 52.1422 24.5809 52.1522 24.726 52.1041C24.8213 52.0557 24.9183 51.9885 24.9569 51.9016C25.0054 51.7947 25.0054 51.699 24.9569 51.593C24.8992 51.4198 24.9855 51.2466 25.1492 51.1692C25.3233 51.1013 25.5169 51.1882 25.584 51.3618C25.6707 51.6223 25.6707 51.9111 25.5554 52.1609C25.4298 52.4218 25.2077 52.6141 24.9469 52.7209C24.6485 52.8262 24.321 52.8174 24.0217 52.6919C23.7224 52.547 23.4816 52.3063 23.3659 51.9885C23.2407 51.6124 23.2594 51.2077 23.4231 50.8606C23.5781 50.5142 23.8679 50.2438 24.2343 50.1083C24.4811 50.021 24.7434 49.9864 25.0006 50.0102ZM25.0642 38.3279L25.1496 38.333C25.1496 39.3541 25.989 40.2021 27.0208 40.2116C28.0812 40.193 28.9011 39.3641 28.9011 38.333C28.9011 37.292 28.0625 36.4544 27.0208 36.4445C26.5288 36.4445 26.0562 36.6268 25.6993 36.9842C25.3432 37.3401 25.1496 37.8119 25.1496 38.3132H25.0693L25.0642 38.3279ZM19.0254 31.8325C18.9797 32.0601 18.9034 32.2785 18.7996 32.4819C18.8716 32.4763 18.9443 32.4736 19.0174 32.4736C19.176 32.4736 19.3326 32.4879 19.4856 32.5165C19.3227 32.2956 19.1689 32.0672 19.0254 31.8325ZM17.3211 28.9185C17.3919 28.9411 17.4622 28.9665 17.5318 28.9951C17.6729 29.0527 17.8056 29.1218 17.93 29.2013C17.8668 28.9419 17.8144 28.6782 17.7734 28.4113C17.645 28.5999 17.4928 28.7707 17.3211 28.9185ZM17.8704 33.4875C17.7993 33.5423 17.7309 33.6027 17.6665 33.6686C16.9622 34.3919 16.9622 35.6342 17.6574 36.338C18.4189 37.0799 19.5862 37.0799 20.3373 36.338C20.4025 36.2733 20.4625 36.2038 20.517 36.1299C20.5508 36.0739 20.5869 36.0195 20.6251 35.9667C20.794 35.6803 20.8874 35.3487 20.8874 35.0087C20.8874 34.4975 20.6851 34.0348 20.3373 33.6686C19.9908 33.3124 19.5182 33.1201 19.0075 33.1201C18.6633 33.1134 18.337 33.1984 18.0516 33.366C17.9932 33.4089 17.9328 33.4498 17.8704 33.4875ZM23.3746 18.961C22.4629 19.3765 21.6338 19.9424 20.9196 20.6271C20.8787 20.6748 20.8357 20.7209 20.7908 20.7654C20.7459 20.8102 20.7002 20.8527 20.6529 20.8936C19.9673 21.609 19.4006 22.439 18.9852 23.3521C18.959 23.4443 18.9276 23.5356 18.8918 23.627C18.8533 23.7167 18.8104 23.8029 18.7631 23.8859C18.4304 24.7665 18.2345 25.7141 18.2015 26.7019C18.2114 26.7904 18.2162 26.8802 18.2162 26.9712C18.2162 27.0677 18.211 27.163 18.2003 27.2563C18.2285 28.2397 18.4189 29.1838 18.7456 30.0623C18.8004 30.1588 18.8493 30.2597 18.8918 30.3638C18.9232 30.4476 18.9511 30.5326 18.9745 30.6188C19.3727 31.4989 19.9113 32.3028 20.5615 33.0014C20.6454 33.0669 20.7253 33.1388 20.8008 33.2159C20.8675 33.2834 20.9295 33.3541 20.9868 33.4284C21.6636 34.063 22.4398 34.5929 23.2904 34.9908C23.4148 35.0222 23.5368 35.0635 23.6552 35.1143C23.7637 35.1608 23.8679 35.214 23.9668 35.2736C24.8186 35.5886 25.7319 35.7756 26.6834 35.8114C26.7951 35.7967 26.9075 35.7891 27.0208 35.7891C27.1301 35.7899 27.2382 35.7975 27.3439 35.8118C28.2907 35.7772 29.2008 35.5921 30.0509 35.2792C30.1571 35.2168 30.2687 35.1612 30.386 35.1139C30.4921 35.0703 30.5998 35.0345 30.7079 35.0063C31.5863 34.5996 32.3879 34.0523 33.0831 33.3938C33.1355 33.3318 33.1916 33.2727 33.2508 33.2159C33.3017 33.1646 33.3541 33.1158 33.4082 33.0697C34.0842 32.36 34.6438 31.5382 35.0556 30.6358C35.0842 30.5405 35.1188 30.4468 35.1593 30.3539C35.1935 30.2724 35.2309 30.1938 35.2722 30.1179C35.6041 29.2465 35.8016 28.3096 35.8382 27.333C35.8231 27.221 35.8151 27.107 35.8151 26.991C35.8151 26.8762 35.8227 26.7634 35.8378 26.653C35.8 25.6823 35.6041 24.751 35.275 23.8843C35.2281 23.7986 35.1864 23.7096 35.1494 23.6178C35.1172 23.5384 35.089 23.4586 35.0647 23.378C34.6486 22.4597 34.0799 21.624 33.3915 20.9044C33.3398 20.8607 33.2893 20.8142 33.2405 20.7654C33.1963 20.7201 33.1538 20.674 33.1133 20.6264C32.3935 19.9377 31.5581 19.3689 30.6404 18.9531C30.5549 18.9288 30.4703 18.8999 30.386 18.8669C30.2958 18.8288 30.2087 18.7859 30.1249 18.739C29.2437 18.4054 28.2962 18.2096 27.3094 18.1774C27.2144 18.1877 27.1182 18.1929 27.0208 18.1929C26.9294 18.1921 26.8392 18.1869 26.7502 18.1766C25.7637 18.2064 24.8178 18.3986 23.9382 18.7275C23.8476 18.7795 23.7534 18.826 23.6552 18.8669C23.5626 18.9038 23.4688 18.9352 23.3746 18.961ZM27.4254 19.8495C27.4254 20.081 27.2331 20.2637 27.0204 20.2637C26.7895 20.2637 26.6059 20.081 26.6158 19.8495C26.6158 19.6283 26.7895 19.4448 27.0204 19.4448C27.2331 19.4448 27.4254 19.6183 27.4254 19.8495ZM24.6576 20.2451C24.7446 20.4476 24.6492 20.6788 24.4366 20.7654C24.2343 20.8623 23.9835 20.7654 23.9152 20.5529C23.8293 20.3408 23.9251 20.1005 24.1274 20.0234C24.3396 19.9261 24.5717 20.0231 24.6576 20.2451ZM22.2475 21.6526C22.4212 21.8254 22.4212 22.0657 22.2475 22.2301C22.0933 22.4037 21.8325 22.4037 21.6891 22.2301C21.5146 22.0661 21.5245 21.8167 21.6783 21.6526C21.8325 21.4977 22.0933 21.4886 22.2475 21.6526ZM34.176 27.4053C33.9447 27.4053 33.7611 27.2218 33.7611 26.9997C33.7611 26.7686 33.9447 26.5863 34.176 26.5863C34.3982 26.5863 34.5906 26.7686 34.5906 26.9997C34.5906 27.2218 34.3982 27.4053 34.176 27.4053ZM33.7901 24.6394C33.5687 24.7263 33.3275 24.6199 33.2409 24.4177C33.1542 24.2053 33.2516 23.9749 33.4531 23.8875C33.6745 23.7906 33.9066 23.8978 34.0024 24.0996C34.0795 24.3117 33.9833 24.5528 33.7901 24.6394ZM32.353 22.2297C32.2091 22.3934 31.948 22.3934 31.7941 22.2297C31.63 22.0657 31.6304 21.8163 31.7743 21.6522C31.948 21.497 32.2091 21.497 32.353 21.6518C32.5266 21.825 32.5266 22.0657 32.353 22.2297ZM30.1265 20.5533C30.0394 20.765 29.8073 20.8619 29.5951 20.7654C29.384 20.6784 29.297 20.4472 29.3737 20.2451C29.4607 20.0429 29.6917 19.9365 29.9039 20.0234C30.1165 20.1001 30.2123 20.3408 30.1265 20.5533ZM26.6158 34.1313C26.6158 33.9093 26.7895 33.7266 27.0208 33.7366C27.2521 33.7266 27.4254 33.9093 27.4254 34.1313C27.4067 34.372 27.233 34.5555 27.0208 34.5555C26.8082 34.5643 26.6158 34.382 26.6158 34.1313ZM29.3737 33.7366C29.297 33.5431 29.3836 33.3025 29.5951 33.2353C29.8073 33.1289 30.0394 33.2353 30.1161 33.4474C30.2119 33.6591 30.1066 33.9006 29.9039 33.9772C29.7115 34.073 29.4695 33.9772 29.3737 33.7366ZM31.7747 32.3195C31.6304 32.1757 31.6205 31.9247 31.7945 31.7614C31.948 31.5974 32.2095 31.5974 32.3534 31.761C32.5171 31.9338 32.5171 32.1844 32.3629 32.3393C32.219 32.5033 31.9484 32.5033 31.7747 32.3195ZM21.0611 26.9997C21.0611 23.714 23.7323 21.0446 27.0204 21.0446C30.2902 21.0446 32.9901 23.714 32.9901 26.9997C32.9901 30.2768 30.2902 32.9462 27.0204 32.9462C23.7323 32.9462 21.0611 30.2768 21.0611 26.9997ZM32.3243 26.9997C32.3243 24.071 29.9428 21.6908 27.0204 21.6908C24.0889 21.6908 21.7173 24.071 21.7173 26.9997C21.7173 29.9197 24.0889 32.3008 27.0204 32.3008C29.9428 32.3008 32.3243 29.9197 32.3243 26.9997ZM20.5695 23.8971C20.7817 23.9741 20.8878 24.2049 20.7813 24.4177C20.705 24.639 20.4625 24.7359 20.2606 24.639C20.0484 24.5524 19.9626 24.3117 20.0297 24.0996C20.116 23.907 20.3572 23.7906 20.5695 23.8971ZM19.8755 26.5954C20.0969 26.5954 20.2901 26.769 20.2805 27.0001C20.2805 27.2321 20.0969 27.4144 19.8755 27.4057C19.6434 27.4057 19.4705 27.2222 19.4606 27.0001C19.4705 26.769 19.6434 26.5954 19.8755 26.5954ZM20.2606 29.3609C20.4729 29.2648 20.7141 29.3613 20.7821 29.5829C20.8874 29.7946 20.7821 30.0262 20.5695 30.1032C20.3572 30.1898 20.1164 30.0933 20.0393 29.9007C19.9622 29.689 20.0484 29.438 20.2606 29.3609ZM21.6883 31.761C21.8425 31.5974 22.1028 31.5974 22.2471 31.761C22.4212 31.9251 22.4212 32.1753 22.257 32.3393C22.0933 32.5033 21.8321 32.4934 21.6883 32.3393C21.515 32.1844 21.5146 31.9251 21.6883 31.761ZM23.9156 33.4375C24.0026 33.2353 24.2343 33.1289 24.437 33.2353C24.6576 33.3021 24.7542 33.5431 24.658 33.7552C24.5717 33.9578 24.3301 34.0642 24.1278 33.9772C23.9247 33.9006 23.8297 33.6587 23.9156 33.4375ZM33.4531 30.1032C33.2508 30.0167 33.1538 29.7859 33.2512 29.5829C33.3366 29.3613 33.5687 29.2648 33.781 29.3609C34.0024 29.4483 34.0791 29.689 34.0123 29.8812C33.9249 30.0933 33.6844 30.1906 33.4531 30.1032ZM14.7612 9.66762C15.0235 9.71885 15.2806 9.77525 15.5294 9.83721C16.2739 7.60749 18.4101 6.07005 20.8294 6.07005C21.6489 6.07005 22.4164 6.24321 23.1024 6.57763C23.2057 6.41042 23.3138 6.24282 23.4259 6.07521C22.4577 5.25187 21.2499 4.79712 20.0007 4.79712C17.242 4.79712 14.9798 6.95534 14.7612 9.66762ZM4.58057 31.294C4.64059 31.2507 4.70497 31.2137 4.77373 31.1828C4.81745 31.1633 4.86355 31.1482 4.91085 31.1367C5.09169 30.8154 5.30353 30.5088 5.54478 30.2208C5.08573 29.8923 4.6382 29.546 4.22287 29.2092C4.3747 29.4678 4.47803 29.7509 4.53049 30.0437C4.65132 30.446 4.67159 30.8765 4.58057 31.294ZM18.9375 37.543C19.3954 37.8945 19.8767 38.217 20.3787 38.5074C20.2332 38.1829 20.1549 37.8254 20.1549 37.4557C20.1549 37.3897 20.1573 37.3238 20.1621 37.2575C19.7793 37.4584 19.3576 37.5538 18.9375 37.543ZM14.1729 23.5634C14.0247 24.1163 13.9114 24.6835 13.8359 25.2621C14.1253 24.9527 14.4897 24.7156 14.8991 24.581C14.5744 24.3069 14.3252 23.9566 14.1729 23.5634ZM24.5717 16.5152C24.5717 16.2658 24.5137 16.0239 24.4267 15.8027C24.0404 14.8388 22.9227 14.3856 21.9677 14.7816C21.0325 15.176 20.5595 16.2746 20.9359 17.2484C21.331 18.1929 22.4494 18.6457 23.4044 18.2501C24.1087 17.9609 24.5717 17.2869 24.5717 16.5152ZM18.4284 22.644C18.4284 21.883 17.9753 21.2082 17.2611 20.9191C16.3064 20.5143 15.2075 20.9775 14.8025 21.9215C14.7155 22.1527 14.6674 22.4033 14.6674 22.644C14.6674 23.4157 15.1205 24.0996 15.8243 24.3887C16.7893 24.7831 17.8783 24.3304 18.2746 23.3772C18.3899 23.1353 18.4284 22.8946 18.4284 22.644ZM33.2409 16.5252C33.2409 15.7642 32.7977 15.0707 32.064 14.7816C31.1101 14.3856 30.0199 14.8388 29.6054 15.8126C29.2199 16.7472 29.6917 17.8652 30.6368 18.2501C31.0998 18.4435 31.6205 18.4435 32.064 18.2501C32.537 18.0674 32.903 17.7103 33.0958 17.2385C33.2122 17.0065 33.2409 16.7659 33.2409 16.5252ZM28.9011 15.6677C28.9011 14.6176 28.0625 13.7692 27.0208 13.7692C25.989 13.7692 25.1496 14.6366 25.1496 15.6577C25.1496 16.6888 25.989 17.5463 27.0208 17.5463C27.5224 17.5463 27.9946 17.3541 28.3419 16.9879C28.7084 16.6316 28.9011 16.1689 28.9011 15.6677ZM39.3739 22.6539C39.3739 22.4132 39.3353 22.1725 39.2387 21.9406C38.8337 20.9775 37.7348 20.5143 36.7698 20.9191C35.8445 21.3051 35.372 22.4228 35.7575 23.3772C35.9502 23.8391 36.3167 24.1961 36.7698 24.3788C37.2431 24.5909 37.7435 24.5909 38.2165 24.3887C38.9307 24.0996 39.3739 23.4157 39.3739 22.6539ZM36.924 18.9733C36.924 18.482 36.7213 17.9995 36.3652 17.6432C35.6323 16.9207 34.4364 16.9207 33.6939 17.6531C32.9996 18.3466 32.9996 19.5901 33.7035 20.3027C34.4364 21.0446 35.6323 21.0446 36.3652 20.3027C36.7213 19.9563 36.924 19.4837 36.924 18.9733ZM40.2419 26.991C40.2419 25.95 39.4029 25.1112 38.3612 25.1112C37.3103 25.1112 36.4808 25.95 36.4808 26.991C36.4808 28.0411 37.3103 28.8696 38.3612 28.8696C39.4029 28.8696 40.2419 28.0411 40.2419 26.991ZM44.3674 14.751C44.3149 15.0151 44.2577 15.2745 44.1945 15.5255C46.4186 16.2595 47.9762 18.395 47.9762 20.8138C47.9762 21.6256 47.8045 22.3807 47.4627 23.0602C47.6312 23.1639 47.8001 23.2731 47.969 23.3863C48.779 22.4239 49.2293 21.2368 49.2293 19.9849C49.2293 17.2325 47.0843 14.9742 44.3674 14.751ZM11.9492 48.5554C12.1531 48.6261 12.3773 48.6467 12.6034 48.6054C13.4719 48.4219 14.0501 47.5843 13.8769 46.6883C13.764 46.1418 13.4436 45.6878 13.0132 45.3931C12.5859 45.1779 12.0836 45.1072 11.5812 45.2327C10.7044 45.4448 10.183 46.3408 10.4052 47.2082C10.4552 47.4211 10.5629 47.6137 10.7116 47.7678C10.7052 47.742 10.6997 47.7158 10.6949 47.6896C10.675 47.6129 10.6563 47.5164 10.6563 47.4302C10.6563 46.784 11.1281 46.1871 11.8038 46.0616C11.9194 46.033 12.0247 46.11 12.0446 46.2256C12.0832 46.3408 11.9965 46.4663 11.8709 46.4857C11.3602 46.5815 11.0228 47.0732 11.1186 47.6129C11.1579 47.8083 11.2414 47.9843 11.357 48.1328C11.5419 48.1741 11.7374 48.1705 11.929 48.1137C12.1798 48.0558 12.3821 47.9016 12.5073 47.6896C12.6416 47.4683 12.6813 47.2082 12.6034 46.9576C12.5848 46.8039 12.6615 46.7066 12.7676 46.6883C12.8928 46.6585 13.0092 46.7264 13.0378 46.842C13.1249 47.2181 13.0764 47.5942 12.884 47.9016C12.7004 48.2392 12.392 48.4418 12.0248 48.5383C11.9997 48.5447 11.9747 48.5502 11.9492 48.5554ZM38.4307 18.1254C38.5341 18.1718 38.6382 18.2131 38.7423 18.2501C39.5626 18.3462 40.3567 18.0801 40.9458 17.5848C41.7363 16.9299 42.1027 14.1263 42.1707 11.8616C40.6568 11.9001 37.1947 12.1893 36.4419 13.0952C35.9427 13.6759 35.6744 14.4658 35.7686 15.2816C35.8064 15.3889 35.8493 15.4957 35.8978 15.6021C35.9443 15.2157 36.1049 14.8511 36.3556 14.5492C37.0381 13.7613 40.3186 13.7021 40.3377 13.7017C40.3285 13.712 40.2681 16.9994 39.4609 17.6714C39.1668 17.9188 38.8099 18.0769 38.4307 18.1254ZM37.5484 35.1191C37.914 34.6477 38.2487 34.1504 38.5496 33.6317C38.1573 33.8108 37.7233 33.8915 37.2885 33.8557C37.4816 34.2465 37.5683 34.6846 37.5484 35.1191ZM23.5722 39.8351C24.1314 39.9852 24.7053 40.1 25.2907 40.1767C24.9803 39.886 24.743 39.5202 24.6091 39.1107C24.3273 39.4411 23.9692 39.6878 23.5722 39.8351ZM11.4397 18.339C11.305 18.2485 11.1754 18.1512 11.0514 18.0475C10.5423 17.6134 10.1691 16.7448 9.89523 15.7193C9.23905 15.9393 8.63612 16.3174 8.1103 16.8429C6.52846 18.451 6.13896 20.8313 7.10158 22.7778C7.96801 22.2949 8.78397 21.9886 9.41194 22.0371C9.55184 22.0498 9.69134 22.0685 9.82965 22.0939C9.51964 21.6804 9.35351 21.174 9.35351 20.6597C9.35351 20.5827 9.35351 20.5048 9.37338 20.4476C9.42187 19.8022 9.71996 19.214 10.2219 18.7998C10.5741 18.513 10.9958 18.3518 11.4397 18.339ZM9.79825 15.3329C9.75334 15.1422 9.71161 14.9472 9.67226 14.7502C8.40441 14.8543 7.24744 15.3825 6.35478 16.2658C4.41524 18.2131 4.31587 21.323 6.08292 23.4061C6.30748 23.2556 6.53243 23.1122 6.755 22.9784C6.37266 22.2063 6.18109 21.3675 6.18109 20.5433C6.18109 19.0984 6.75103 17.6631 7.8301 16.5832C8.4056 15.991 9.06814 15.572 9.79825 15.3329ZM12.677 25.2141C12.632 25.0961 12.5824 24.9817 12.5283 24.8717C12.0184 24.2402 11.2756 23.8756 10.5208 23.8105C9.48904 23.7334 7.25142 25.4385 5.59327 26.9997C6.70214 28.0407 9.34437 30.2768 10.5208 30.1803C11.2783 30.1203 12.0295 29.7506 12.5414 29.1059C12.5915 29.0015 12.638 28.8935 12.6801 28.7819C12.3725 29.0245 12.0005 29.1711 11.611 29.2076C10.5693 29.2843 8.19734 27.0001 8.19734 27.0001C8.19734 27.0001 10.5693 24.7065 11.611 24.7935C11.9993 24.83 12.3697 24.9742 12.677 25.2141ZM13.8351 28.7298C13.9106 29.3073 14.0235 29.8737 14.1714 30.4257C14.322 30.0325 14.568 29.683 14.8868 29.4078C14.4806 29.2732 14.1205 29.038 13.8351 28.7298ZM19.4948 21.4608C19.2686 21.5057 19.0377 21.52 18.8088 21.5025C18.9117 21.7047 18.988 21.9203 19.0337 22.1447C19.1776 21.9096 19.3314 21.6816 19.4948 21.4608ZM17.9773 20.5545C18.709 21.0299 19.6839 20.9401 20.3373 20.3027C20.6851 19.9563 20.8874 19.4837 20.8874 18.9733C20.8874 18.4721 20.6851 17.9903 20.3373 17.6531C19.6049 16.9207 18.4093 16.9207 17.6665 17.6432C16.9622 18.3565 16.9622 19.5901 17.6665 20.3027C17.75 20.3861 17.839 20.4599 17.9324 20.5247L17.9773 20.5545ZM16.4618 18.9253C16.1161 19.3765 15.7985 19.8503 15.5119 20.344C15.8935 20.1732 16.316 20.0941 16.7405 20.1239C16.5588 19.7736 16.4614 19.384 16.4614 18.9733L16.4618 18.9253ZM31.6054 52.8925C31.8005 52.7984 31.9738 52.6526 32.1022 52.46C32.6037 51.7181 32.4014 50.6969 31.6499 50.2152C31.188 49.9121 30.6475 49.8144 30.1404 49.9018C29.6801 50.0515 29.2692 50.3605 28.9977 50.8034C28.7855 51.1783 28.7084 51.6128 28.824 52.0457C28.9206 52.4604 29.1905 52.8174 29.5565 53.0387C29.7584 53.1558 29.9734 53.2158 30.1956 53.2158C30.1686 53.1991 30.1424 53.182 30.1161 53.1638C29.8073 52.9612 29.5947 52.6625 29.518 52.2963C29.4508 51.9111 29.518 51.5445 29.7302 51.2466C29.7886 51.1398 29.9325 51.1211 30.0394 51.1692C30.1352 51.2466 30.1551 51.3809 30.0867 51.4774C29.9524 51.699 29.8844 51.9401 29.9524 52.2006C30.0009 52.46 30.1352 52.6721 30.357 52.8075C30.5243 52.9207 30.7111 52.9874 30.9011 53.0101C31.0537 52.9088 31.1797 52.7714 31.2739 52.6053C31.4182 52.3734 31.438 52.1228 31.3895 51.892C31.3311 51.641 31.1773 51.4198 30.9361 51.2947C30.849 51.2268 30.8109 51.0925 30.8681 50.9861C30.9265 50.8892 31.0617 50.8506 31.167 50.919C31.4853 51.1017 31.7174 51.4198 31.8232 51.7661C31.9098 52.1323 31.8426 52.5088 31.6503 52.8174C31.636 52.8428 31.6209 52.8679 31.6054 52.8925ZM22.8031 46.9107C22.3182 46.0425 22.0118 45.2251 22.0635 44.596C22.0754 44.4562 22.0941 44.3168 22.1191 44.1782C21.6406 44.5325 21.0643 44.6973 20.4725 44.6357C19.8171 44.5873 19.2384 44.2886 18.8235 43.7874C18.531 43.4394 18.3763 43.022 18.3616 42.5756C18.2718 42.7082 18.1752 42.8361 18.0723 42.9581C17.6335 43.468 16.7603 43.8418 15.7313 44.1154C15.9527 44.7648 16.339 45.3633 16.8664 45.8979C18.4586 47.4806 20.86 47.8679 22.8031 46.9107ZM24.7848 36.0584C24.91 36.2483 25.0097 36.4552 25.0809 36.6736C25.1274 36.618 25.1763 36.5636 25.2275 36.5116C25.3432 36.4024 25.4664 36.3055 25.5952 36.2201C25.3209 36.178 25.0507 36.124 24.7848 36.0584ZM21.4995 35.216C21.5702 35.1791 21.6426 35.1453 21.7169 35.1143C21.8643 35.0508 22.0162 35.0027 22.17 34.9698C21.9259 34.8212 21.6891 34.662 21.4597 34.4924C21.5054 34.7303 21.5186 34.9745 21.4995 35.216ZM45.9162 39.8161C45.8467 39.8041 45.7775 39.7855 45.71 39.7593C45.6686 39.7426 45.6281 39.7223 45.5883 39.6993C45.2306 39.8006 44.861 39.8685 44.4834 39.901C44.5737 40.4499 44.6448 41.0028 44.7004 41.5275C44.7807 41.2371 44.9127 40.9635 45.0875 40.7196C45.2851 40.3574 45.5681 40.0444 45.9162 39.8161ZM19.1549 13.884C19.1693 14.4932 19.0588 15.1224 18.7992 15.7388C19.3374 15.3456 19.9045 14.9897 20.4971 14.6755C19.9868 14.5361 19.5254 14.2645 19.1549 13.884ZM29.0474 3.99284C29.334 4.34037 29.6273 4.71013 29.913 5.09023C29.9432 5.06044 29.979 5.03581 30.0199 5.01913C30.6368 4.78838 31.1101 4.34434 31.3895 3.76685C31.6503 3.15918 31.6785 2.49392 31.4464 1.88705C31.2739 1.4156 30.9265 1.03948 30.4631 0.827395C30.0199 0.624838 29.4993 0.59624 29.0267 0.76901C28.6603 0.913977 28.3809 1.18366 28.2163 1.53078C28.0625 1.87712 28.0625 2.26317 28.1881 2.62896C28.2938 2.90817 28.4862 3.13019 28.7569 3.24577C29.0164 3.37127 29.297 3.3812 29.5764 3.26562C29.7787 3.18857 29.9428 3.05354 30.0299 2.86091C30.1165 2.66749 30.1265 2.43673 30.0581 2.22464C30.0013 2.08921 29.8848 1.97403 29.7401 1.91683C29.6054 1.83859 29.4512 1.83859 29.3061 1.89697C29.2199 1.9355 29.1328 2.01215 29.0943 2.10906C29.0458 2.20478 29.0458 2.31122 29.0848 2.40813C29.1328 2.5809 29.0561 2.77393 28.8821 2.82159C28.7084 2.8895 28.5247 2.80292 28.4675 2.63889C28.3519 2.37835 28.3809 2.08921 28.4862 1.82985C28.6118 1.57924 28.824 1.38582 29.0943 1.28017C29.3741 1.17452 29.702 1.17452 30.0199 1.30877C30.3093 1.4438 30.5501 1.68489 30.6567 2.01215C30.8109 2.38827 30.791 2.78306 30.6272 3.14012C30.4631 3.49638 30.1738 3.76685 29.8073 3.88243C29.5613 3.98053 29.3026 4.01667 29.0474 3.99284ZM15.5159 33.6559C15.8041 34.1516 16.1236 34.627 16.4714 35.0794C16.471 35.056 16.4706 35.0321 16.4706 35.0087C16.4706 34.6012 16.5632 34.2108 16.7397 33.8621C16.316 33.8982 15.8963 33.8247 15.5159 33.6559ZM15.6133 35.871C15.5036 35.8213 15.3939 35.7772 15.2834 35.7387C14.469 35.6489 13.6801 35.9146 13.0955 36.4059C12.3145 37.0799 11.948 39.8744 11.861 42.149C13.3848 42.091 16.847 41.8114 17.6093 40.9154C18.0977 40.3344 18.3644 39.544 18.2706 38.7238C18.2337 38.6194 18.1919 38.5149 18.1458 38.4113C18.0938 38.791 17.93 39.148 17.676 39.4411C17.0123 40.2291 13.7326 40.2982 13.7123 40.2986C13.7226 40.2883 13.7727 36.991 14.5716 36.3289C14.8653 36.0787 15.2274 35.9186 15.6133 35.871ZM5.45257 11.9537C5.38659 12.1523 5.36593 12.3712 5.39971 12.5936C5.59327 13.4709 6.45135 14.0393 7.32931 13.8657C7.91038 13.7458 8.37698 13.3883 8.66434 12.9149C8.84915 12.505 8.90082 12.0332 8.77483 11.5625C8.55424 10.6951 7.67629 10.1752 6.80786 10.3774C6.5841 10.4409 6.38578 10.5509 6.2268 10.7026C6.25303 10.6959 6.27966 10.6903 6.30629 10.6852C7.06859 10.541 7.79115 11.0327 7.94655 11.7746C7.97516 11.9001 7.89806 12.0153 7.7828 12.0344C7.65681 12.0638 7.54036 11.9772 7.52168 11.8703C7.4251 11.3405 6.91438 11.0037 6.39333 11.1097C6.19262 11.1499 6.01377 11.236 5.86472 11.3556C5.82935 11.5355 5.8377 11.7222 5.89254 11.9089C5.95017 12.1507 6.10399 12.3529 6.31622 12.4971C6.54833 12.6321 6.79832 12.6706 7.05905 12.6035C7.17431 12.5741 7.29116 12.642 7.32971 12.7477C7.34839 12.8827 7.28122 12.9983 7.15563 13.0269C6.78918 13.1135 6.42274 13.0654 6.08531 12.8633C5.77609 12.6806 5.55511 12.3716 5.46807 12.0153C5.46211 11.995 5.45694 11.9744 5.45257 11.9537ZM28.9381 36.6915C29.0065 36.4687 29.1046 36.2586 29.229 36.0664C28.9639 36.1307 28.6941 36.1835 28.4202 36.2248C28.6134 36.3559 28.7875 36.5132 28.9381 36.6915ZM36.0425 33.4089C35.3195 32.9506 34.3358 33.0371 33.7035 33.6686C32.9996 34.372 32.9996 35.6255 33.7035 36.338C34.4364 37.0712 35.6323 37.0799 36.3652 36.348C36.7213 35.9917 36.924 35.5 36.924 35.0087C36.924 34.4975 36.7213 34.0348 36.3652 33.6686C36.2861 33.5884 36.201 33.5173 36.1116 33.4546L36.0425 33.4089ZM24.5495 37.7416C24.5638 37.6535 24.5717 37.5645 24.5717 37.4755C24.5717 36.7038 24.0988 36.0199 23.4044 35.7212C22.941 35.5286 22.4398 35.5286 21.9677 35.7121C21.5047 35.9043 21.1283 36.2705 20.9359 36.7423C20.5404 37.6876 21.0325 38.8148 21.9478 39.2092C22.941 39.5952 24.0217 39.1321 24.4267 38.1789C24.4652 38.0808 24.4978 37.9791 24.5225 37.8755C24.5304 37.8306 24.5392 37.7857 24.5495 37.7416ZM36.7114 25.0635C36.6502 25.0433 36.5893 25.0206 36.5289 24.9956C36.3763 24.9333 36.2316 24.8578 36.0969 24.77C36.1613 25.0322 36.2146 25.2987 36.2559 25.5687C36.3847 25.3809 36.5381 25.2109 36.7114 25.0635ZM37.7733 29.4658C36.9459 29.3403 36.0925 29.7946 35.7575 30.5945C35.3616 31.5291 35.8445 32.6956 36.7698 33.0614C37.7348 33.4661 38.8337 33.0129 39.2487 32.0589C39.3353 31.8278 39.3739 31.5875 39.3739 31.3563C39.3739 30.5747 38.9307 29.8812 38.2165 29.5921C38.1283 29.5543 38.0384 29.5242 37.9478 29.5011C37.889 29.4912 37.8306 29.4797 37.7733 29.4658ZM15.7528 18.7819C14.8315 19.1652 13.8816 19.2176 13.0092 19.019L13.0279 19.0404C13.3176 19.3582 13.4627 19.7828 13.4043 20.2256C13.3657 20.6597 13.1634 21.0545 12.8256 21.3436C12.5744 21.5657 12.2183 21.6812 11.8705 21.6526C11.5045 21.6427 11.1766 21.4592 10.9353 21.18C10.7617 20.9775 10.6559 20.7169 10.6559 20.4476V20.3412C10.6945 20.052 10.83 19.7828 11.0609 19.5989C11.456 19.2625 12.0446 19.3097 12.3924 19.6958C12.4691 19.8022 12.4592 19.9265 12.3725 20.0135C12.2759 20.0814 12.1499 20.0814 12.0641 19.9949C11.8705 19.7828 11.5526 19.7438 11.3403 19.9265C11.2052 20.0429 11.1182 20.2069 11.0995 20.3892C11.0896 20.5727 11.148 20.7554 11.2533 20.9004C11.4274 21.074 11.6496 21.2082 11.9003 21.2281C12.1416 21.2471 12.3725 21.1701 12.5462 21.016C12.797 20.8039 12.9512 20.5048 12.9699 20.1871C12.9993 19.888 12.9027 19.5603 12.7004 19.3197C12.421 19.0019 12.0446 18.8093 11.6396 18.7799C11.2251 18.7414 10.83 18.8669 10.5013 19.1374C10.0963 19.4837 9.84515 19.9563 9.79785 20.4762C9.71081 21.016 9.91351 21.5363 10.27 21.9406C10.3988 22.0923 10.5415 22.2258 10.6945 22.3397C10.9652 22.4458 11.2275 22.5777 11.4767 22.7349C12.2724 22.9768 13.1702 22.8259 13.8574 22.2492C13.8745 22.2357 13.8928 22.225 13.9118 22.2174C14.3645 20.9814 14.9877 19.8268 15.7528 18.7819ZM30.6161 6.07759C30.7668 6.30279 30.9106 6.52798 31.0442 6.7508C33.1502 5.68995 35.7448 6.11453 37.4454 7.82356C38.0309 8.40064 38.4569 9.06471 38.6982 9.79074C38.8862 9.74626 39.0782 9.70495 39.2721 9.66643C39.1755 8.40382 38.6465 7.23177 37.7535 6.33933C35.8231 4.40114 32.6936 4.31892 30.6161 6.07759ZM15.9138 9.93889C16.872 10.2094 17.6669 10.5704 18.0723 11.0514C18.1665 11.1626 18.2555 11.2785 18.339 11.3989C18.4256 10.8015 18.7166 10.2697 19.1812 9.88567C19.6728 9.46149 20.2988 9.27799 20.9359 9.33638C21.4049 9.37729 21.8166 9.5584 22.1374 9.86144C22.1076 9.70336 22.0861 9.5441 22.0734 9.38444C22.0193 8.716 22.3675 7.83825 22.8977 6.91999C22.2705 6.61854 21.5853 6.46483 20.8294 6.46483C18.5826 6.46483 16.6077 7.88035 15.9138 9.93889ZM44.7358 12.1599C44.6921 12.6107 44.6372 13.0821 44.5697 13.5551C44.6118 13.5575 44.6547 13.5678 44.6965 13.5865C45.2855 13.8558 45.9504 13.8657 46.568 13.6536C47.1853 13.4125 47.657 12.9598 47.9277 12.3815C48.1491 11.9188 48.1586 11.3989 47.9949 10.9259C47.812 10.4544 47.4547 10.0882 47.0013 9.87613C46.6447 9.72203 46.2588 9.70257 45.8832 9.83761C45.5259 9.98178 45.2465 10.2423 45.0927 10.5895C44.9671 10.8587 44.9476 11.1479 45.0542 11.4271C45.1408 11.698 45.3526 11.9089 45.6229 12.0344C45.8157 12.1209 46.0374 12.1309 46.2401 12.0637C46.4524 11.9772 46.6066 11.8417 46.6833 11.6396C46.7604 11.4954 46.7604 11.3405 46.7032 11.1864C46.6447 11.0426 46.5482 10.9358 46.4138 10.8786C46.297 10.8206 46.2016 10.8206 46.0951 10.8587C45.9894 10.8877 45.9222 10.9644 45.8737 11.0613C45.8053 11.2249 45.603 11.302 45.4393 11.2249C45.2855 11.1479 45.208 10.9556 45.2855 10.7916C45.4007 10.541 45.603 10.348 45.8642 10.2423C46.1245 10.1553 46.4138 10.1653 46.6646 10.2809C46.973 10.406 47.204 10.6466 47.3105 10.9556C47.4257 11.2634 47.4257 11.601 47.2819 11.9089C47.1269 12.2659 46.8284 12.5356 46.4524 12.6806C46.0951 12.8061 45.7 12.7862 45.3526 12.6222C45.1098 12.5177 44.9019 12.3592 44.7358 12.1599ZM23.7522 42.3278C23.1441 42.9807 22.7924 43.8152 22.72 44.6643C22.6036 46.0421 24.9183 49.0586 27.0204 51.3332C28.4572 49.8005 31.4464 46.2351 31.312 44.6445C31.2489 43.804 30.8967 42.974 30.287 42.3234C30.4552 42.6816 30.5569 43.0649 30.5887 43.4498C30.7234 45.1175 27.3102 48.6829 27.1559 48.8366L26.7895 48.75C25.8444 47.7479 23.3178 44.8955 23.4529 43.4498C23.4843 43.0665 23.5853 42.6844 23.7522 42.3278ZM25.2804 13.8153C24.7017 13.8911 24.135 14.0043 23.5821 14.1529C23.9756 14.301 24.3309 14.5457 24.6099 14.8717C24.743 14.4654 24.9759 14.1032 25.2804 13.8153ZM48.5966 42.0851C48.6701 41.8782 48.69 41.6466 48.6415 41.4071C48.448 40.5298 47.5899 39.9614 46.7219 40.135C46.2044 40.2462 45.7656 40.5393 45.4671 40.9345C45.2263 41.3738 45.1432 41.9008 45.266 42.4286C45.3622 42.8528 45.6416 43.2091 46.0088 43.4311C46.384 43.6523 46.8284 43.7202 47.2334 43.6047C47.4575 43.5594 47.6558 43.451 47.8148 43.2961C47.7854 43.3032 47.7552 43.31 47.725 43.3155C47.3776 43.3922 47.0013 43.3155 46.6833 43.113C46.3749 42.9009 46.1626 42.5923 46.0947 42.2162C46.0565 42.091 46.1432 41.9953 46.2584 41.9655C46.384 41.9469 46.4905 42.014 46.5092 42.1391C46.568 42.3901 46.7119 42.6022 46.9341 42.746C47.1364 42.8909 47.407 42.9493 47.6483 42.8909C47.8427 42.8548 48.0191 42.7758 48.169 42.6642C48.2111 42.4795 48.2099 42.2853 48.1586 42.091C48.0915 41.8412 47.9372 41.6383 47.725 41.504C47.5028 41.3686 47.2334 41.3301 46.9925 41.4071C46.8669 41.4357 46.7413 41.3591 46.7215 41.253C46.7032 41.0993 46.7604 41.0028 46.8757 40.9738C47.2334 40.8773 47.6185 40.9357 47.946 41.1378C48.2556 41.3201 48.4865 41.6192 48.5736 41.9755C48.5823 42.012 48.5899 42.0485 48.5966 42.0851ZM38.5424 20.3491C38.2435 19.8344 37.9117 19.3419 37.5488 18.8736C37.5659 19.3046 37.4796 19.7383 37.2896 20.1247C37.7225 20.093 38.1537 20.1732 38.5424 20.3491ZM28.8129 12.6587C28.9258 12.6158 29.0355 12.5686 29.1412 12.5173C29.7719 12.0077 30.1324 11.269 30.2032 10.5116C30.2807 9.48135 28.5828 7.2552 27.0204 5.58748C25.989 6.68685 23.7323 9.33638 23.848 10.5116C23.9088 11.2746 24.2788 12.0189 24.9211 12.5288C25.024 12.5781 25.1306 12.6234 25.2403 12.6647C25.0018 12.3581 24.8579 11.9883 24.8213 11.601C24.7446 10.5601 27.0204 8.18975 27.0204 8.18975C27.0204 8.18975 29.3057 10.5601 29.2199 11.601C29.1873 11.9859 29.0474 12.3533 28.8129 12.6587ZM47.9678 30.6132C47.7425 30.7637 47.5175 30.9067 47.2946 31.0402C48.3442 33.1321 47.9241 35.7141 46.2111 37.4175C45.6269 38.0089 44.9632 38.4216 44.239 38.665C44.2843 38.8569 44.3264 39.0527 44.3658 39.2509C45.636 39.1472 46.8029 38.619 47.6964 37.7353C49.6419 35.7824 49.7273 32.6872 47.9678 30.6132ZM36.1001 29.2124C36.2881 29.0877 36.4916 28.9888 36.705 28.9177C36.5349 28.7715 36.3843 28.6035 36.2575 28.4184C36.2165 28.6869 36.1637 28.9518 36.1001 29.2124ZM35.2297 32.4716C35.1291 32.2722 35.0544 32.0593 35.0087 31.8397C34.868 32.0704 34.7178 32.2948 34.558 32.5117C34.7798 32.4684 35.0055 32.4549 35.2297 32.4716ZM31.8617 34.9789C32.0859 35.0254 32.3025 35.1016 32.5056 35.2045C32.5004 35.1398 32.498 35.0742 32.498 35.0087C32.498 34.8439 32.5135 34.6814 32.5441 34.5234C32.3239 34.6846 32.0962 34.8367 31.8617 34.9789ZM9.67306 39.2497C9.72552 38.9844 9.78275 38.7238 9.84595 38.472C7.6111 37.7349 6.08531 35.6025 6.08531 33.1869C6.08531 32.3639 6.25025 31.5986 6.58053 30.9147C6.41797 30.8142 6.25501 30.7089 6.09206 30.6005C5.26656 31.5672 4.81228 32.7671 4.81228 34.0158C4.81228 36.7686 6.94896 39.0269 9.67306 39.2497ZM52.9292 22.4049C52.8322 22.2142 52.6863 22.0458 52.4987 21.9219C52.1323 21.6713 51.7078 21.5943 51.2833 21.6713C50.8597 21.7678 50.4932 22.0184 50.242 22.3747C49.9483 22.8152 49.8494 23.3271 49.9221 23.8144C50.0604 24.2998 50.3764 24.7351 50.8493 25.0155C51.2257 25.2466 51.6693 25.3138 52.0838 25.1982C52.5083 25.0925 52.8549 24.8221 53.0671 24.4658C53.1855 24.2696 53.2447 24.0563 53.2503 23.8458C53.238 23.8665 53.2253 23.8871 53.2118 23.9074C53.0194 24.2053 52.6911 24.4173 52.335 24.4944C51.9586 24.5722 51.5922 24.4944 51.2833 24.2918C51.1872 24.2247 51.149 24.0897 51.2162 23.9844C51.2833 23.8875 51.4185 23.8589 51.5155 23.926C51.7277 24.071 51.9968 24.1195 52.248 24.071C52.4987 24.0126 52.701 23.8776 52.8553 23.6663C52.9661 23.5019 53.0317 23.3223 53.056 23.1404C52.9542 22.9808 52.8151 22.8426 52.6426 22.7409C52.4212 22.6059 52.1704 22.5773 51.9101 22.6257C51.6693 22.6928 51.457 22.8565 51.3215 23.0586C51.2643 23.1742 51.1287 23.204 51.0234 23.1555C50.9165 23.0884 50.8879 22.9434 50.9459 22.8465C51.1287 22.5288 51.4467 22.298 51.8044 22.2111C52.1704 22.1142 52.5472 22.1725 52.8652 22.3652C52.887 22.3779 52.9081 22.3914 52.9292 22.4049ZM38.2872 35.2156C39.2061 34.8324 40.154 34.7783 41.0229 34.9718L41.0129 34.9602C40.7725 34.6711 40.6183 34.295 40.6183 33.9093C40.6183 33.8708 40.6183 33.8235 40.6369 33.7652C40.6656 33.331 40.8877 32.9363 41.2156 32.667C41.4851 32.4251 41.8325 32.3195 42.1989 32.3393C42.5654 32.3778 42.8833 32.5315 43.125 32.8207C43.3181 33.0618 43.3853 33.341 43.3761 33.6587C43.3463 33.9479 43.2025 34.2183 42.9799 34.4006C42.7875 34.5647 42.5467 34.6512 42.3058 34.6326C42.0451 34.6131 41.813 34.4789 41.6492 34.285C41.5821 34.1985 41.5916 34.073 41.6786 33.9959C41.7744 33.9006 41.91 33.9093 41.9771 34.0158C42.0737 34.1115 42.1989 34.1699 42.3344 34.1897C42.4696 34.1985 42.5852 34.1699 42.7005 34.073C42.836 33.9479 42.9318 33.7938 42.9517 33.6115C42.9612 33.418 42.9032 33.254 42.7776 33.1003C42.6138 32.9077 42.3917 32.7925 42.1608 32.7726C41.9195 32.7627 41.6786 32.8397 41.5046 32.9946C41.2538 33.1968 41.1 33.4859 41.0614 33.8037C41.0519 34.0829 41.1385 34.4403 41.3595 34.6711C41.6107 34.9988 41.9867 35.2009 42.3917 35.2295C42.8161 35.2593 43.2112 35.1338 43.5304 34.8637C43.9354 34.517 44.1957 34.0448 44.2434 33.5145C44.2819 32.9561 44.1178 32.4644 43.7708 32.0589C43.6377 31.8957 43.4862 31.7515 43.3201 31.6284C43.0745 31.5287 42.8356 31.4072 42.6079 31.2646C42.4286 31.2074 42.2402 31.1696 42.0451 31.1534C41.3694 31.1061 40.714 31.3083 40.1835 31.7412C40.1668 31.7563 40.1485 31.7686 40.1298 31.7781C39.6767 33.0145 39.0531 34.1699 38.2872 35.2156ZM13.9059 34.8637C14.514 34.849 15.1407 34.9583 15.7544 35.2156C15.3597 34.6771 15.0028 34.1091 14.6876 33.5157C14.5497 34.0233 14.2815 34.484 13.9059 34.8637ZM8.10116 14.1886C8.17588 14.2013 8.2498 14.222 8.32174 14.2514C8.36546 14.2665 8.40798 14.2851 8.44932 14.3074C8.80782 14.2053 9.17784 14.1362 9.55501 14.1016C9.46519 13.5551 9.39445 13.0039 9.3392 12.4808C9.25415 12.7882 9.10988 13.0765 8.91751 13.3295C8.71839 13.6731 8.44057 13.9698 8.10116 14.1886ZM29.1917 40.7752C30.0994 41.1537 30.8001 41.7785 31.2739 42.5236V42.5152C31.3124 42.091 31.5147 41.6863 31.843 41.417C32.1805 41.1279 32.6141 41.0024 33.0485 41.031C33.405 41.0596 33.7329 41.2244 33.9642 41.4941C34.1959 41.7733 34.3016 42.101 34.2826 42.4866C34.2532 42.7948 34.1188 43.0649 33.8772 43.2575C33.6459 43.4498 33.3664 43.5463 33.0672 43.5181C32.5561 43.4696 32.1606 42.9966 32.2095 42.4866C32.2095 42.371 32.3148 42.2932 32.4499 42.2932C32.5561 42.3031 32.6526 42.3901 32.6423 42.5351C32.6423 42.5537 32.634 42.5637 32.634 42.5736C32.634 42.8242 32.8363 43.055 33.1057 43.0836C33.2794 43.1034 33.4531 43.0351 33.6073 42.9295C33.7428 42.8143 33.8299 42.6308 33.8485 42.4485C33.868 42.1975 33.7997 41.9659 33.626 41.7733C33.4722 41.5906 33.2512 41.4842 33.0191 41.4651C32.6908 41.4357 32.3828 41.5422 32.1224 41.7447C31.8911 41.9469 31.7361 42.2261 31.7174 42.5537C31.6789 42.968 31.814 43.3731 32.064 43.6718C32.3442 43.9895 32.7107 44.1917 33.1443 44.2302C33.6657 44.2787 34.186 44.1246 34.591 43.7774C34.9956 43.4311 35.2464 42.9585 35.2949 42.4183V42.1975C35.2949 42.0724 35.2857 41.9489 35.2674 41.8277C35.1562 41.5696 35.0675 41.2999 35.0043 41.0219C34.614 40.2788 33.8652 39.741 32.9706 39.6623C32.944 39.6604 32.9193 39.6548 32.8971 39.6453C31.7393 40.1854 30.4953 40.5707 29.1917 40.7752ZM13.8629 35.5214C12.9711 35.5544 12.1321 35.8984 11.4858 36.4544C10.4151 37.35 9.91391 41.1076 9.81693 44.1917C11.9095 44.1345 16.5485 43.7385 17.5795 42.5152C18.1291 41.871 18.467 41.0326 18.4936 40.1385C18.3593 40.5131 18.1589 40.859 17.9074 41.1565C16.8184 42.4282 11.8709 42.5351 11.6583 42.5537L11.4659 42.2162C11.524 40.8384 11.7553 37.0315 12.8542 36.1069C13.1491 35.8559 13.4913 35.6561 13.8629 35.5214ZM30.3021 11.6578C30.9027 11.0073 31.2493 10.1788 31.312 9.33598C31.4376 7.94866 29.1325 4.93215 27.0204 2.66748C25.584 4.19977 22.5944 7.76517 22.72 9.34591C22.792 10.1899 23.1433 11.0208 23.7498 11.6721C23.5845 11.3163 23.4843 10.935 23.4529 10.5509C23.3178 8.88321 26.7513 5.3182 26.8857 5.14464L27.2517 5.24989C28.1881 6.26267 30.7139 9.10523 30.5982 10.5509C30.5648 10.9298 30.4651 11.3059 30.3021 11.6578ZM49.4654 22.7012C49.407 22.7425 49.3446 22.7786 49.2774 22.808C49.2289 22.8306 49.1785 22.8485 49.1268 22.862C48.9483 23.1762 48.7405 23.4761 48.5052 23.758C48.9436 24.0726 49.3724 24.4034 49.7727 24.7267C49.6296 24.4614 49.5366 24.1719 49.4948 23.876C49.4404 23.6643 49.4126 23.4447 49.4126 23.2227C49.4126 23.0495 49.4297 22.8743 49.4654 22.7012ZM31.326 49.4343C31.2791 49.372 31.2389 49.3045 31.2059 49.2322C31.1872 49.1885 31.1721 49.1432 31.1598 49.0971C30.8371 48.9172 30.5287 48.7063 30.2401 48.466C29.9134 48.922 29.5688 49.3668 29.2342 49.7795C29.4878 49.6321 29.7648 49.5308 30.0517 49.4784C30.4615 49.3561 30.9007 49.3378 31.326 49.4343ZM46.9548 31.2356C46.0975 31.7102 45.291 32.0077 44.6682 31.9537C44.5132 31.9402 44.3582 31.9191 44.2044 31.8897C44.5192 32.3111 44.6873 32.8135 44.6873 33.341C44.6873 33.418 44.6873 33.4859 44.6778 33.5531C44.6194 34.1985 44.3113 34.7867 43.8197 35.2009C43.4831 35.4817 43.0657 35.6489 42.6297 35.6696C42.7549 35.755 42.875 35.8463 42.9902 35.9432C43.4966 36.3809 43.869 37.2523 44.1428 38.2798C44.8038 38.0546 45.396 37.6737 45.9309 37.1383C47.5092 35.5703 47.9003 33.1742 46.9548 31.2356ZM5.09725 24.1076C5.06705 24.0762 5.04201 24.038 5.02492 23.9944C4.80235 23.3863 4.34886 22.895 3.7515 22.6257C3.16328 22.3652 2.49755 22.3461 1.89979 22.5773C1.41729 22.7508 1.04131 23.0972 0.829471 23.5603C0.636709 24.0031 0.607297 24.5143 0.781379 24.9861C0.916511 25.3432 1.18598 25.651 1.55243 25.8059C1.89979 25.96 2.27618 25.9786 2.64262 25.8444C2.91249 25.728 3.13466 25.5358 3.25032 25.2661C3.37551 24.9956 3.39419 24.7065 3.269 24.4372C3.21177 24.235 3.05636 24.0801 2.864 23.9844C2.67163 23.8974 2.44907 23.8875 2.23723 23.9745C2.09295 24.013 1.9773 24.1385 1.91887 24.2736C1.85131 24.4078 1.85131 24.5528 1.89979 24.697C1.94789 24.8133 2.02539 24.9003 2.11163 24.9384C2.20861 24.977 2.31433 24.9861 2.41051 24.9384C2.58459 24.8804 2.76742 24.9575 2.83538 25.141C2.88387 25.3138 2.81551 25.4973 2.64262 25.5457C2.3819 25.6609 2.09295 25.651 1.85131 25.5258C1.58144 25.4103 1.38868 25.1982 1.30164 24.9285C1.17644 24.6394 1.18598 24.3022 1.32111 24.0031C1.45624 23.6953 1.70703 23.4633 2.02539 23.3577C2.39223 23.2135 2.80677 23.2227 3.15334 23.3962C3.50111 23.5603 3.77057 23.8395 3.88583 24.2057C3.9848 24.4583 4.02137 24.72 3.99712 24.975C4.34568 24.6878 4.7165 24.3935 5.09725 24.1076ZM24.8519 13.2243C23.9307 12.8406 23.2244 12.2028 22.7522 11.4442L22.7491 11.4855C22.72 11.9089 22.5169 12.3144 22.1891 12.5836C21.8612 12.8728 21.4275 13.0082 20.9935 12.9598C20.6466 12.9399 20.3091 12.7763 20.0778 12.507C19.8457 12.2373 19.7304 11.9001 19.769 11.5141C19.7785 11.2063 19.9327 10.9358 20.1649 10.7436C20.3958 10.5509 20.6851 10.4544 20.9745 10.483C21.2256 10.5116 21.4566 10.618 21.6203 10.8107C21.7845 11.0037 21.881 11.2535 21.8325 11.5041C21.8226 11.6296 21.7173 11.7162 21.6016 11.6976C21.4947 11.6976 21.3989 11.601 21.3989 11.4954V11.4271C21.3989 11.302 21.3604 11.1864 21.2825 11.0899C21.2058 10.9938 21.0802 10.9358 20.9359 10.9259C20.7523 10.9072 20.5885 10.9556 20.4343 11.0808C20.2901 11.1864 20.2122 11.36 20.1935 11.5427C20.1935 11.7933 20.2606 12.0443 20.4152 12.2274C20.5695 12.4101 20.7817 12.507 21.0325 12.5257C21.3409 12.555 21.6688 12.4585 21.9096 12.2464C22.1505 12.0538 22.2956 11.7551 22.3146 11.437C22.3441 11.0426 22.2371 10.628 21.9681 10.309C21.7069 9.99171 21.3222 9.79908 20.9073 9.77049C20.3763 9.72203 19.8656 9.87613 19.4606 10.2225C19.046 10.5601 18.7949 11.0514 18.7567 11.5812C18.7325 11.7671 18.7329 11.9529 18.7559 12.136C18.8815 12.4148 18.9797 12.7076 19.0472 13.0098C19.1315 13.1611 19.2313 13.3057 19.3449 13.4415C19.7785 13.9622 20.3958 14.28 21.0802 14.3372C21.1048 14.3391 21.1275 14.3439 21.1481 14.3515C22.3055 13.8129 23.5491 13.4284 24.8519 13.2243ZM35.5472 40.137C35.5766 41.0354 35.9212 41.8805 36.4808 42.5351C37.3683 43.5947 41.1385 44.096 44.2342 44.1917C44.1571 42.1109 43.7613 37.4755 42.5654 36.4445C41.9131 35.888 41.065 35.5453 40.162 35.5191C40.5396 35.6537 40.8877 35.8543 41.187 36.1069C42.46 37.1864 42.5654 42.1391 42.5654 42.3413L42.2375 42.5533C40.8778 42.4866 37.0691 42.2642 36.143 41.1561C35.8867 40.8582 35.6832 40.5123 35.5472 40.137ZM42.402 30.2748C43.0546 30.8837 43.8853 31.2356 44.7263 31.3083C46.1046 31.4238 49.1332 29.1008 51.3899 26.9997C49.876 25.5552 46.297 22.5773 44.7163 22.6924C43.8789 22.7647 43.0502 23.1198 42.3984 23.731C42.7577 23.5658 43.1428 23.4661 43.5308 23.4347C45.1885 23.2993 48.7572 26.7205 48.9209 26.8659L48.8148 27.2317C47.812 28.1662 44.9671 30.6915 43.5308 30.5751C43.144 30.5417 42.7601 30.4404 42.402 30.2748ZM30.7437 12.1563C30.3252 12.5991 29.8061 12.9685 29.1929 13.2251C29.8538 13.3283 30.4997 13.4785 31.1268 13.6719C30.8753 13.2227 30.7437 12.7207 30.7437 12.2079V12.1563ZM41.9016 30.7193C41.4473 30.2911 41.0702 29.7561 40.8134 29.1198C40.7093 29.7986 40.5559 30.4615 40.3571 31.1045C40.8222 30.8396 41.3523 30.7077 41.9016 30.7193ZM39.8456 8.098C39.8341 8.17148 39.8154 8.24416 39.7888 8.31486C39.7705 8.36172 39.7483 8.4074 39.7228 8.45148C39.8242 8.80655 39.8933 9.17314 39.9283 9.54728C40.4784 9.45632 41.0324 9.38563 41.5578 9.33002C41.2593 9.2494 40.9795 9.11396 40.7315 8.93365C40.377 8.73268 40.071 8.44751 39.8456 8.098ZM35.1069 16.4441C34.6518 16.095 34.1733 15.7749 33.6745 15.4858C33.8183 15.8059 33.8966 16.1582 33.8966 16.5252C33.8966 16.5871 33.8943 16.6491 33.8891 16.7118C34.2714 16.522 34.6907 16.4326 35.1069 16.4441ZM39.8723 30.4555C40.0253 29.8896 40.1413 29.3089 40.2184 28.7163C39.9291 29.0289 39.563 29.2696 39.1521 29.4066C39.4776 29.6878 39.7248 30.0484 39.8723 30.4555ZM34.8911 40.1247C34.8752 39.511 34.9845 38.8779 35.2428 38.2583C34.7031 38.6531 34.1339 39.0102 33.5393 39.3259C34.0644 39.4701 34.527 39.7513 34.8911 40.1247ZM9.3082 41.8384C9.35192 41.3869 9.40597 40.9146 9.47314 40.4404C9.42982 40.44 9.3857 40.4313 9.34437 40.4142C8.74661 40.135 8.09042 40.1151 7.48352 40.3471C6.86629 40.5782 6.38419 41.031 6.12346 41.6192C5.91122 42.091 5.89254 42.6022 6.06504 43.0836C6.24866 43.5463 6.59523 43.9125 7.03997 44.1246C7.40602 44.2787 7.79115 44.2886 8.15759 44.1631C8.5149 44.0189 8.7947 43.7584 8.95884 43.4112C9.0741 43.1416 9.09398 42.8528 8.98707 42.5736C8.88134 42.3031 8.68898 42.091 8.42825 41.9655C8.22595 41.8698 8.00339 41.8599 7.81102 41.9469C7.60872 42.0136 7.45491 42.1689 7.348 42.3611C7.28083 42.5053 7.28082 42.6602 7.32931 42.8143C7.38655 42.9581 7.5022 43.055 7.63734 43.1217C7.73431 43.1706 7.84997 43.1801 7.94655 43.1416C8.05187 43.1034 8.11904 43.0264 8.16753 42.9394C8.24463 42.7754 8.42825 42.6888 8.5924 42.7754C8.76608 42.8238 8.86187 43.0264 8.76609 43.1992C8.65957 43.4593 8.43819 43.6519 8.16753 43.7584C7.89806 43.8453 7.61866 43.8354 7.348 43.7198C7.07853 43.5852 6.84642 43.3536 6.73076 43.0351C6.60556 42.746 6.6151 42.3901 6.75977 42.091C6.93346 41.7248 7.2228 41.4552 7.58885 41.3201C7.94655 41.1946 8.34161 41.2145 8.69772 41.3686C8.92824 41.4778 9.13968 41.6407 9.3082 41.8384ZM18.802 38.2607C19.1871 39.1806 19.2416 40.129 19.0456 40.9988L19.0643 40.9829C19.3835 40.7033 19.798 40.5683 20.2416 40.5981C20.6851 40.6362 21.0802 40.8487 21.3604 41.1851C21.5913 41.4456 21.7169 41.7932 21.6783 42.1494C21.6585 42.5152 21.4856 42.8528 21.2054 43.0836C20.9645 43.277 20.6652 43.3731 20.3568 43.354C20.0679 43.3247 19.798 43.1801 19.6049 42.9585C19.2865 42.5633 19.3255 41.9659 19.7301 41.6192C19.8171 41.5422 19.9622 41.5422 20.0293 41.6478C20.116 41.7249 20.1064 41.8599 20.0095 41.9469C19.798 42.1391 19.7686 42.458 19.9423 42.6693C20.0679 42.8143 20.2221 42.8913 20.3954 42.9199C20.5881 42.9295 20.7618 42.8623 20.916 42.746C21.1096 42.6022 21.2252 42.3615 21.2439 42.1204V42.0339C21.2439 41.8313 21.1668 41.6379 21.0325 41.4651C20.8198 41.2145 20.5309 41.0695 20.203 41.0409C19.8843 41.0215 19.5762 41.108 19.3537 41.3201C19.017 41.5906 18.8334 41.9659 18.7949 42.371C18.7563 42.7758 18.8918 43.1801 19.1514 43.5181C19.4987 43.9224 19.9709 44.173 20.5015 44.2016C21.0325 44.26 21.5432 44.096 21.9677 43.7488C22.1139 43.6237 22.2427 43.4859 22.3536 43.3386C22.4621 43.0562 22.5992 42.7829 22.7634 42.5244C22.9983 41.7296 22.844 40.838 22.2761 40.1548C22.2606 40.1378 22.2487 40.1191 22.2395 40.1C21.0031 39.6476 19.8477 39.0249 18.802 38.2607ZM41.8778 44.6957C41.4231 44.6532 40.9473 44.6004 40.47 44.5336C40.4704 44.5777 40.4621 44.6222 40.4446 44.6647C40.1839 45.243 40.1453 45.9166 40.3762 46.5247C40.6183 47.1311 41.0618 47.6228 41.6492 47.8834C42.1321 48.0943 42.6337 48.1241 43.1254 47.941C43.5788 47.767 43.9354 47.4302 44.1476 46.958C44.3113 46.6105 44.33 46.2157 44.1957 45.8495C44.0609 45.5023 43.7903 45.2045 43.4532 45.0492C43.173 44.9253 42.8837 44.9253 42.6043 45.0206C42.3348 45.1175 42.1226 45.3296 41.9871 45.5893C41.91 45.7823 41.8913 45.9936 41.9684 46.197C42.0356 46.3996 42.1993 46.5529 42.3917 46.6589C42.5371 46.7169 42.6909 46.7268 42.8364 46.6684C42.9803 46.62 43.0959 46.5048 43.154 46.3797C43.2025 46.2736 43.2025 46.1585 43.173 46.0616C43.1345 45.965 43.0673 45.8884 42.9616 45.8395C42.8066 45.7629 42.7394 45.5703 42.8066 45.4066C42.8837 45.243 43.0673 45.1747 43.2315 45.243C43.4918 45.3582 43.6846 45.5703 43.7811 45.83C43.8869 46.1005 43.8773 46.3797 43.7517 46.6502C43.6261 46.9389 43.3765 47.1701 43.0673 47.2757C42.7593 47.4008 42.4115 47.3921 42.1321 47.2566C41.7657 47.0831 41.4855 46.784 41.3599 46.4182C41.2256 46.0616 41.2355 45.666 41.3992 45.3101C41.5101 45.0718 41.6751 44.8621 41.8778 44.6957ZM32.5056 18.7811C32.4464 18.8117 32.3859 18.8403 32.3243 18.8669C32.1725 18.9277 32.0175 18.9737 31.8609 19.0051C32.0962 19.1477 32.3243 19.3006 32.5453 19.463C32.5143 19.3042 32.498 19.1405 32.498 18.9733C32.498 18.909 32.5004 18.845 32.5056 18.7811ZM35.0075 22.1487C35.0532 21.9223 35.1291 21.7055 35.2321 21.5025C35.0035 21.52 34.7726 21.5065 34.5465 21.462C34.7098 21.6836 34.8636 21.9128 35.0075 22.1487ZM33.6665 38.5094C34.1756 38.2151 34.6629 37.8886 35.1267 37.5319C34.7031 37.5446 34.2758 37.4533 33.8887 37.2575C33.8939 37.3234 33.8966 37.3897 33.8966 37.4557C33.8966 37.8262 33.8156 38.1845 33.6665 38.5094ZM35.8962 38.4025C35.8481 38.509 35.8052 38.6162 35.7674 38.7238C35.6697 39.5416 35.9336 40.3336 36.4224 40.9154C37.0977 41.7058 39.904 42.0521 42.1703 42.149C42.1321 40.6362 41.8428 37.1665 40.9362 36.4147C40.3508 35.9186 39.5571 35.6497 38.7356 35.747C38.6322 35.784 38.5289 35.8257 38.4263 35.8717C38.8071 35.921 39.1656 36.0807 39.4609 36.3289C40.2586 37.0013 40.3285 40.2895 40.3289 40.3089C40.3194 40.2986 37.019 40.2382 36.3457 39.4415C36.1005 39.1456 35.9431 38.7854 35.8962 38.4025ZM88.3345 40.4229L75.4628 13.5774H77.9608C78.3006 14.4607 78.7763 15.5731 79.388 16.914C80.0672 18.3573 80.45 19.2156 80.5354 19.4865C80.6201 19.6394 80.6964 19.8177 80.7644 20.0215L86.7539 32.4251C88.8445 36.7388 91.0702 39.3533 93.4322 40.27V40.7291C91.1214 40.525 89.4215 40.4229 88.3345 40.4229ZM81.0195 34.2592L78.7509 29.5214H69.1418L66.7206 34.2592L66.593 34.5901C66.5763 34.6079 66.4487 34.8542 66.2107 35.3292C65.8537 36.0417 65.6753 36.7725 65.6753 37.5188C65.6753 38.8096 66.3891 39.7267 67.8167 40.27V40.7291C67.5274 40.7291 67.0266 40.6859 66.3128 40.6017C65.3096 40.4825 64.4094 40.4229 63.611 40.4229C62.8801 40.4229 61.9794 40.4825 60.9091 40.6017C60.1782 40.6859 59.6937 40.7291 59.4564 40.7291V40.27C61.3256 39.3196 63.0247 37.358 64.5537 34.3867L73.0161 17.9331C72.3699 16.6257 71.4824 15.6152 70.3528 14.9019C69.2221 14.1886 67.9018 13.7986 66.3891 13.7303V13.2719H67.281C68.0794 13.2719 69.176 13.3228 70.5695 13.4245C72.0309 13.5261 72.982 13.5774 73.4239 13.5774L86.2952 40.4229C84.647 40.4567 82.6673 40.5588 80.3566 40.7291V40.27C81.6479 40.0504 82.2937 39.3533 82.2937 38.1813C82.2937 37.3159 81.8685 36.0084 81.0195 34.2592ZM70.1358 27.6118H77.8332L74.1377 19.8689L70.1358 27.6118ZM114.536 20.9385H114C113.983 18.9694 113.202 17.509 111.656 16.5577C110.143 15.624 108.308 15.1565 106.15 15.1565C104.434 15.1565 103.023 15.5219 101.919 16.2519C100.798 16.9823 100.236 17.8569 100.236 18.8756C100.236 19.9623 100.679 20.8202 101.562 21.4481C102.48 22.1273 104.29 22.9339 106.991 23.8677C109.506 24.7331 111.265 25.4385 112.267 25.9818C113.338 26.5756 114.23 27.4251 114.944 28.5285C115.657 29.666 116.014 30.9313 116.014 32.3234C116.014 34.4467 115.233 36.1104 113.669 37.3159C114.246 36.5179 114.536 35.3975 114.536 33.9542C114.536 32.5959 114.221 31.3901 113.593 30.3364C112.93 29.2668 112.114 28.418 111.146 27.7897C110.16 27.1451 108.554 26.4568 106.329 25.7268C102.981 24.6235 100.798 23.6806 99.7782 22.8994C98.7588 22.1018 98.2488 20.8623 98.2488 19.1814C98.2488 17.2452 99.0302 15.7257 100.594 14.6219C102.157 13.5519 104.374 13.0174 107.246 13.0174C109.2 13.0174 111.588 13.3569 114.408 14.0361V14.2144L114.459 15.1819C114.459 15.6915 114.476 16.3028 114.51 17.0161C114.561 17.8819 114.587 18.6461 114.587 19.3081C114.587 19.7502 114.57 20.2935 114.536 20.9385ZM96.5414 31.5851H97.1272C97.2461 33.7584 98.1217 35.5504 99.7528 36.9588C101.35 38.3517 103.185 39.0479 105.258 39.0479C106.855 39.0479 108.155 38.5983 109.158 37.6979C110.16 36.798 110.661 35.7196 110.661 34.4626C110.661 33.138 110.177 32.1113 109.209 31.3809C108.274 30.668 106.431 29.8614 103.678 28.9614C101.469 28.2318 99.897 27.6285 98.9622 27.1527C97.8748 26.5923 97.0251 25.8372 96.4134 24.8856C95.7509 23.9185 95.4194 22.8322 95.4194 21.626C95.4194 20.2852 95.8693 18.9694 96.7703 17.6786C96.5664 18.3406 96.4647 18.9181 96.4647 19.4102C96.4647 20.7348 96.7787 21.8981 97.4078 22.8994C98.0529 23.9356 98.8518 24.7164 99.8036 25.2427C100.755 25.786 102.344 26.406 104.57 27.1022C107.475 27.9855 109.574 28.9614 110.865 30.0314C112.106 31.0672 112.726 32.46 112.726 34.2088C112.726 35.9238 112.08 37.4771 110.789 38.8696C109.48 40.2788 107.526 40.9829 104.927 40.9829C103.873 40.9829 102.412 40.7883 100.543 40.3979C98.9118 40.0583 97.688 39.8796 96.8729 39.8629L96.694 39.6596C96.7107 39.37 96.7199 38.9971 96.7199 38.5383C96.7199 37.995 96.6686 37.155 96.5664 36.0167C96.481 34.8796 96.4393 34.0297 96.4393 33.4697C96.4393 32.7401 96.4734 32.1113 96.5414 31.5851ZM147.059 40.4229L134.187 13.5774H136.685C137.025 14.4607 137.501 15.5731 138.112 16.914C138.792 18.3573 139.174 19.2156 139.26 19.4865C139.345 19.6394 139.421 19.8177 139.489 20.0215L145.479 32.4251C147.569 36.7388 149.795 39.3533 152.157 40.27V40.7291C149.846 40.525 148.146 40.4229 147.059 40.4229ZM139.744 34.2592L137.476 29.5214H127.866L125.445 34.2592L125.318 34.5901C125.301 34.6079 125.173 34.8542 124.935 35.3292C124.578 36.0417 124.4 36.7725 124.4 37.5188C124.4 38.8096 125.113 39.7267 126.541 40.27V40.7291C126.252 40.7291 125.751 40.6859 125.037 40.6017C124.034 40.4825 123.134 40.4229 122.335 40.4229C121.605 40.4229 120.704 40.4825 119.634 40.6017C118.903 40.6859 118.418 40.7291 118.181 40.7291V40.27C120.05 39.3196 121.749 37.358 123.278 34.3867L131.741 17.9331C131.095 16.6257 130.207 15.6152 129.077 14.9019C127.947 14.1886 126.626 13.7986 125.113 13.7303V13.2719H126.005C126.804 13.2719 127.9 13.3228 129.294 13.4245C130.755 13.5261 131.707 13.5774 132.148 13.5774L145.02 40.4229C143.372 40.4567 141.392 40.5588 139.081 40.7291V40.27C140.373 40.0504 141.018 39.3533 141.018 38.1813C141.018 37.3159 140.593 36.0084 139.744 34.2592ZM128.86 27.6118H136.558L132.862 19.8689L128.86 27.6118ZM154.578 13.2719L159.956 13.5774V40.4229H158.376C157.407 40.4229 156.141 40.525 154.578 40.7291V40.27C155.835 39.7783 156.693 38.9887 157.152 37.9013C157.611 36.798 157.84 35.0321 157.84 32.6034V20.429C157.84 17.8311 157.501 16.1165 156.821 15.284C156.124 14.4349 155.376 13.9173 154.578 13.7303V13.2719ZM58.6659 5.18634H183V6.14551H58.6659V5.18634ZM58.6659 47.8544H183V48.8136H58.6659V47.8544Z" fill="#B2A33D"/>
</svg>
